<?xml version="1.0" standalone="no"?>
<!DOCTYPE svg PUBLIC "-//W3C//DTD SVG 1.1//EN" "http://www.w3.org/Graphics/SVG/1.1/DTD/svg11.dtd" >
<svg xmlns="http://www.w3.org/2000/svg">
<metadata>Generated by IcoMoon</metadata>
<defs>
<font id="icomoon" horiz-adv-x="1024">
<font-face units-per-em="1024" ascent="960" descent="-64" />
<missing-glyph horiz-adv-x="1024" />
<glyph unicode="&#x20;" horiz-adv-x="512" d="" />
<glyph unicode="&#xe900;" glyph-name="agent" d="M540.806 642.207v-178.41h12.823c30.664 0 55.567-24.903 55.474-55.474v-416.383c0-30.664-24.81-55.474-55.474-55.474h-83.258c-30.664 0-55.474 24.81-55.474 55.474v416.383c0 30.664 24.81 55.474 55.474 55.474h14.682v178.41h-314.076v-178.41h8.642c30.664 0 55.474-24.903 55.474-55.474v-416.383c0-30.664-24.81-55.474-55.474-55.474h-83.258c-30.664 0-55.474 24.81-55.474 55.474v416.383c0 30.664 24.81 55.474 55.474 55.474h18.863v206.287c0 15.396 12.48 27.877 27.877 27.877h341.953v56.682h55.753v-56.682h341.024c15.396 0 27.877-12.48 27.877-27.877v-206.287h17.934c30.664 0 55.474-24.903 55.474-55.474v-416.383c0-30.664-24.81-55.474-55.474-55.474h-83.258c-30.664 0-55.474 24.81-55.474 55.474v416.383c0 30.664 24.81 55.474 55.474 55.474h9.571v178.41h-313.147zM179.897-8.34v416.383h-83.258v-416.383h83.258zM553.629-8.061v416.383h-83.258v-416.383h83.258zM927.919-8.34v416.383h-83.258v-416.383h83.258zM514.602 767.44c-52.96-0.925-96.642 41.266-97.566 94.234s41.257 96.657 94.217 97.583c52.96 0.924 96.643-41.268 97.566-94.235s-41.258-96.657-94.218-97.582z" />
<glyph unicode="&#xe901;" glyph-name="p-0" d="M136.864 803.993l333.28 138.501c28.481 8.886 56.449 8.886 84.929 0l333.28-138.501c75.132-34.347 90.91-78.122 88.575-153.283 0.455-18.569 0.228-35.601-0.455-45.968-20.563-306.536-207.909-562.178-462.867-657.901l-0.968 0.399-1.024-0.399c-254.959 95.723-442.362 351.365-462.868 657.901-5.753 89.316-4.158 157.071 88.119 199.251zM510.758 820.028v-740.638l0.968-0.399 0.741 0.313 0.741-0.313c184.782 76.356 321.603 345.013 335.217 484.397 6.836 115.574 14.696 118.765-59.296 146.704l-256.042 105.806c-10.196 2.621-17.088 3.873-22.328 4.13z" />
<glyph unicode="&#xe902;" glyph-name="p-1" d="M80.201 690.358h863.625c41.067 0 74.718-33.65 74.718-74.746v-164.878h-1013.087v164.878c0 41.096 33.65 74.746 74.745 74.746zM1018.544 391.664v-310.066c0-41.125-33.65-74.746-74.718-74.746h-863.625c-41.096 0-74.746 33.621-74.746 74.746v310.066h375.883v-72.1h261.35v72.1h375.856zM348.358 889.148h327.313c44.498 0 80.912-36.413 80.912-80.912v-173.225c0-44.498-36.413-80.913-80.912-80.913h-32.981v214.436h-261.351v-214.437h-32.981c-44.528 0-80.941 36.413-80.941 80.913v173.225c0 44.499 36.413 80.913 80.941 80.913z" />
<glyph unicode="&#xe903;" glyph-name="p-2" d="M16.879 667.733h990.21c4.894 0 8.89 4.028 8.89 8.922v48.079l-503.996 189.282-503.966-189.282v-48.079c0-4.894 3.965-8.922 8.861-8.922zM99.593 695.987h824.783c13.073 0 23.729-10.657 23.729-23.729v-37.298c0-13.011-10.657-23.729-23.729-23.729h-824.783c-13.073 0-23.729 10.719-23.729 23.729v37.298c-0.001 13.072 10.656 23.729 23.729 23.729zM101.358 182.603h821.282c14.436 0 26.27-11.833 26.27-26.27v-42.751h-873.854v42.751c0 14.437 11.835 26.27 26.301 26.27zM444.512 582.603h134.944v-428.253h-134.944zM711.24 582.603h134.883v-428.253h-134.883zM177.845 582.603h134.883v-428.253h-134.883zM50.77 77.523h922.429c22.459 0 40.799-18.401 40.799-40.83v-54.709h-1003.996v54.709c0 22.428 18.34 40.83 40.768 40.83z" />
<glyph unicode="&#xe904;" glyph-name="p-3" d="M700.298 883.384l-177.297 57.087c-3.353 1.125-7.214 1.774-11.226 1.774s-7.873-0.649-11.483-1.848l0.257 0.074-177.167-57.087c-9.834-3.242-16.806-12.346-16.806-23.078 0-0.005 0-0.010 0-0.015v0.001-125.467c0.025-69.041 32.948-133.938 88.649-174.732l102.633-74.92c3.986-2.956 9.001-4.732 14.431-4.732s10.446 1.776 14.497 4.778l-0.066-0.047 102.632 74.92c55.359 40.987 87.936 105.852 87.752 174.732v125.467c0 0.003 0 0.007 0 0.011 0 10.734-6.973 19.839-16.636 23.033l-0.171 0.049zM584.837 745.215l-23.093-22.452c-2.085-2.049-3.378-4.899-3.378-8.051 0-0.691 0.062-1.367 0.181-2.024l-0.010 0.069 5.517-31.814c0.11-0.592 0.173-1.273 0.173-1.969 0-6.234-5.054-11.288-11.288-11.288-1.942 0-3.769 0.49-5.365 1.354l0.060-0.030-29.378 14.882c-1.527 0.809-3.338 1.284-5.26 1.284s-3.733-0.475-5.323-1.314l0.062 0.030-28.736-14.882c-1.535-0.832-3.361-1.322-5.301-1.322-6.236 0-11.292 5.056-11.292 11.292 0 0.694 0.063 1.372 0.182 2.031l-0.010-0.069 5.517 31.814c0.108 0.587 0.17 1.263 0.17 1.953 0 3.152-1.292 6.003-3.375 8.052l-0.002 0.002-23.606 22.452c-0.449-0.063-0.967-0.099-1.494-0.099-6.235 0-11.289 5.054-11.289 11.289s5.054 11.289 11.289 11.289c3.017 0 5.758-1.184 7.783-3.112l-0.005 0.004 32.203 4.49c3.777 0.548 6.911 2.878 8.564 6.094l0.030 0.064 14.37 28.866c-0.769 1.495-1.219 3.261-1.219 5.133 0 6.306 5.112 11.418 11.418 11.418s11.418-5.112 11.418-11.418c0-1.872-0.45-3.639-1.249-5.198l0.030 0.064 14.367-28.866c1.666-3.295 4.811-5.633 8.538-6.151l0.059-0.007 31.943-4.619c4.3-0.635 7.77-3.62 9.097-7.586l0.023-0.080c0.355-1.048 0.559-2.254 0.559-3.508 0-3.16-1.299-6.017-3.392-8.066l-0.002-0.002h0.512zM700.346 421.043c-16.735 0-30.3-13.559-30.3-30.302 0-16.735 13.565-30.3 30.3-30.3 16.736 0 30.3 13.565 30.3 30.3 0 16.736-13.563 30.302-30.3 30.302zM233.006 497.671h0.039c-21.312 14.914-58.754 18.955-62.362-29.822-3.649-48.785 110.244-99.378 128.335-140.978 18.052-41.605 3.615-56.047-28.925-59.658-32.612-3.608-135.284 113.624-150.041 133.753-14.719 20.135 0 368.728-61.42 372.338-61.466 3.616-62.404-135.952-56.050-446.433 209.661-229.519 207.853-345.219 207.853-345.219s202.633-37.906 254.831-23.47c0 0 7.224 339.765-14.483 384.973-21.661 45.136-196.429 139.641-217.777 154.516zM964.413 773.298l0.005 0.007c-61.425-3.61-46.708-352.203-61.425-372.3-14.758-20.167-117.384-137.361-150.003-133.791-32.574 3.649-46.978 18.091-28.965 59.658 18.131 41.6 131.984 92.186 128.375 141.010-3.61 48.745-41.050 44.665-62.403 29.75-21.307-14.835-196.036-109.3-217.783-154.515-21.622-45.17-14.442-384.98-14.442-384.98 52.281-14.404 254.869 23.548 254.869 23.548s-1.841 115.668 207.853 345.182c6.32 310.523 5.416 450.046-56.081 446.431z" />
<glyph unicode="&#xe905;" glyph-name="p-4" d="M512.166 778.223c237.040 0 437.366-133.568 502.728-317.036 5.223-11.325 11.428-65.362-29.526-34.233-5.43 4.498-11.893 8.739-17.684 12.67-30.561 20.53-66.138 32.629-104.094 32.785-66.293 0.31-128.19-37.698-166.095-95.922-7.188-9.567-16.496-4.551-19.185-0.104-37.593 58.277-98.043 96.027-166.145 96.027-68.155 0-128.604-37.8-166.198-96.027-7.137-10.084-17.478-3.567-19.288 0.259-37.593 58.070-97.991 95.768-165.99 95.768-45.558 0-87.649-16.859-121.778-45.454-31.181-26.114-39.713 5.792-29.475 34.49 65.467 183.314 265.741 316.778 502.73 316.778zM461.541 441.899h105.231v-278.978l-105.231-32.733zM288.156 213.545c29.164 0 53.003-23.838 53.003-52.951v-1.293c0-29.113-23.839-52.951-53.003-52.951s-53.003 23.838-53.003 52.951v1.293c0 29.114 23.838 52.951 53.003 52.951zM566.772 162.921c-2.12-89.355-75.911-161.802-165.783-161.802s-163.663 72.447-165.783 161.802h105.542c2.999-30.509 28.906-54.606 60.243-54.606s57.244 24.097 60.294 54.606h105.488zM566.772 809.456v32.785c0 28.958-23.632 52.641-52.59 52.641s-52.642-23.683-52.642-52.641v-32.785h105.231z" />
<glyph unicode="&#xe906;" glyph-name="p-5" d="M473 649.86h-128.069c-1.16-0.136-2.503-0.214-3.865-0.214-0.015 0-0.030 0-0.046 0l-112.868 0.116v-110.762h75.847v-214h-207v214h81.153v110.813l-46.057 0.047c-46.643 0.048-46.607 70 0.036 70h200.902l338.196 173.29c4.639 2.427 10.134 3.851 15.96 3.851 8.777 0 16.799-3.231 22.943-8.567l-0.043 0.037 204.757-177.14c24.514-21.208 9.516-61.47-22.899-61.47h-68.948v-91.232c0-21.54-17.46-39-39-39h-21.020v-458.628h43.372c13.807 0 25-11.193 25-25s-11.193-25-25-25h-317.352c-13.807 0-25 11.193-25 25s11.193 25 25 25h46.885v458.628h-23.885c-21.54 0-39 17.46-39 39v91.232zM543 649.86v-60.232h210v60.232h-210zM797.997 719.86l-115.853 100.228-195.607-100.228h311.46zM147 489v-114h107v114h-107zM712.98 497.359l-115.253-115.254 115.253-115.254v230.509zM712.98 161.656l-100.655-100.656h100.655v100.656zM585.885 105.27l108.983 108.982-108.983 108.983v-217.965zM664.539 519.627h-78.654v-78.654l78.654 78.654z" />
<glyph unicode="&#xe907;" glyph-name="p-6" d="M1021.339 481.949c-38.713-19.853-88.741-43.676-152.269-71.668-64.963-29.749-140.5-53.226-219.442-66.723l-5.488-0.776c46.455-160.806 196.938-238.231 230.489-253.915 91.41 92.084 147.902 218.939 147.902 358.987 0 0.261 0 0.522-0.001 0.782v-0.040q0 16.676-1.191 33.352zM282.028 404.127c23.508-5.995 53.671-11.763 84.335-15.962l4.605-0.516c-1.893 24.184-2.972 52.367-2.972 80.802 0 179.166 42.833 348.327 118.818 497.803l-2.885-6.255c-145.761-8.089-274.156-76.245-361.892-179.912l-0.616-0.747c77.227-76.234 183.637-212.82 160.608-375.214zM218.5 429.936c10.919 133.012-65.712 238.231-132.814 302.951-40.099-59.593-68.41-130.452-79.858-206.828l-0.347-2.816c61.288-40.57 131.842-74.8 206.857-99.124l6.161-1.727v7.544zM631.236 411.076c0-6.353 1.191-12.904 1.985-19.853 246.966 38.514 359.729 161.6 374.023 178.673-23.383 94.762-70.539 176.33-134.814 240.827l0.015-0.015c-84.771-67.3-254.907-225.327-240.614-399.633zM415.239 443.832c0.993-19.853 2.382-41.095 4.169-59.558 21-1.698 45.462-2.666 70.151-2.666 12.472 0 24.886 0.247 37.238 0.736l-1.774-0.056c17.47 0 34.544 1.985 51.021 3.573-20.051 207.658 167.159 392.883 251.135 464.948-76.755 61.021-173.11 100.492-278.312 107.907l-1.609 0.091c-83.467-135.582-132.914-299.848-132.914-475.662 0-14.246 0.325-28.416 0.967-42.503l-0.072 1.998zM669.353 179.197c-38.443 42.813-67.632 94.754-83.911 152.124l-0.661 2.726c-26.576-2.706-57.43-4.248-88.645-4.248-24.697 0-49.169 0.966-73.38 2.862l3.204-0.202c39.705-264.437 171.129-374.619 171.129-374.619l1.985-14.294c80.664 14.090 152.18 45.498 213.233 90.321l-1.406-0.985c-50.812 45.301-96.983 93.108-139.4 144.145l-1.752 2.168zM377.321 338.216c-41.435 5.219-77.097 11.762-112.073 20.076l7.053-1.414c-19.575-61.557-50.518-114.612-90.673-159.208l0.343 0.388c-21.441-25.213-43.676-49.632-66.109-73.852 94.14-115.228 236.24-188.205 395.385-188.205 0.586 0 1.173 0.001 1.759 0.003h3.284c-19.853 39.705-43.874 93.109-73.058 162.394-30.025 69.039-53.073 149.286-65.29 233.047l-0.621 5.184zM0.121 458.325c-0.077-3.302-0.121-7.192-0.121-11.092 0-101.261 29.649-195.597 80.74-274.801l-1.208 2c62.008 49.979 107.729 117.9 129.396 195.837l0.638 2.689c-80.584 24.18-149.993 53.189-215.592 88.379l6.147-3.012z" />
<glyph unicode="&#xe908;" glyph-name="p-7" d="M342.497 641.192h339.005v-410.387h-339.005zM415.498 356.368h0.058c40.18 0 73.060-32.88 73.060-73.060v-264.267c0-40.18-32.88-73.060-73.060-73.060h-0.058c-40.122 0-73.001 32.881-73.001 73.060v264.266c0 40.181 32.88 73.061 73.001 73.061zM608.441 356.368c40.181 0 73.060-32.88 73.060-73.060v-264.267c0-40.18-32.88-73.060-73.060-73.060s-73.060 32.881-73.060 73.060v264.266c0 40.181 32.881 73.061 73.060 73.061zM511.963 678.744c74.695 0 135.666 60.972 135.666 135.667s-60.971 135.608-135.666 135.608c-74.681 0-135.594-60.912-135.594-135.608s60.913-135.667 135.594-135.667zM873.35 802.73c24.705-24.762 24.587-65.235-0.175-89.88l-270.166-269.231c-24.762-24.704-65.234-24.586-89.88 0.176-24.688 24.762-24.63 65.175 0.117 89.88l270.223 269.23c24.764 24.645 65.236 24.587 89.881-0.175zM150.648 802.73c-24.704-24.762-24.587-65.235 0.175-89.88l270.166-269.231c24.762-24.704 65.235-24.586 89.865 0.176 24.705 24.762 24.645 65.175-0.117 89.88l-270.209 269.23c-24.762 24.645-65.235 24.587-89.88-0.175z" />
<glyph unicode="&#xe909;" glyph-name="p-8" d="M64.341 728.058h224.827v117.909c0 24.084 19.669 43.753 43.753 43.753h358.155c24.084 0 43.753-19.669 43.753-43.753v-117.909h224.827c32.507 0 59.16-26.652 59.16-59.159v-603.459c0-32.508-26.653-59.16-59.16-59.16h-895.316c-32.533 0-59.16 26.652-59.16 59.16v603.459c0.001 32.507 26.627 59.159 59.16 59.159zM421.303 696.527v-51.302h65.066v-65.065h51.264v65.065h65.066v51.302h-65.066v65.065h-51.264v-65.065h-65.066zM190.594 230.131c-6.932 0-12.607-5.65-12.607-12.634v-86.583c0-6.931 5.675-12.582 12.607-12.582h86.609c6.932 0 12.582 5.65 12.582 12.582v86.583c0 6.983-5.65 12.634-12.582 12.634h-86.609zM468.702 230.131c-6.932 0-12.607-5.65-12.607-12.634v-86.583c0-6.931 5.675-12.582 12.607-12.582h86.596c6.932 0 12.582 5.65 12.582 12.582v86.583c0 6.983-5.65 12.634-12.582 12.634h-86.596zM746.797 230.131c-6.933 0-12.583-5.65-12.583-12.634v-86.583c0-6.931 5.65-12.582 12.583-12.582h86.582c6.933 0 12.634 5.65 12.634 12.582v86.583c0 6.983-5.7 12.634-12.634 12.634h-86.582zM190.594 447.718c-6.932 0-12.607-5.649-12.607-12.582v-86.583c0-6.933 5.675-12.634 12.607-12.634h86.609c6.932 0 12.582 5.7 12.582 12.634v86.583c0 6.933-5.65 12.582-12.582 12.582h-86.609zM468.702 447.718c-6.932 0-12.607-5.649-12.607-12.582v-86.583c0-6.933 5.675-12.634 12.607-12.634h86.596c6.932 0 12.582 5.7 12.582 12.634v86.583c0 6.933-5.65 12.582-12.582 12.582h-86.596zM746.797 447.718c-6.933 0-12.583-5.649-12.583-12.582v-86.583c0-6.933 5.65-12.634 12.583-12.634h86.582c6.933 0 12.634 5.7 12.634 12.634v86.583c0 6.933-5.7 12.582-12.634 12.582h-86.582z" />
<glyph unicode="&#xe90a;" glyph-name="p-9" d="M914.7 806.4h-805.5c-60.1 0-109.2-55.1-109.2-122.5v-472.8c0-67.4 49.2-122.6 109.3-122.6h805.5c60.1 0 109.3 55.2 109.3 122.6v472.8c-0.1 67.4-49.3 122.5-109.4 122.5zM305.5 694.4c63.9 0 115.7-51.8 115.7-115.8 0-63.9-51.7-115.8-115.7-115.8s-115.7 51.8-115.7 115.8c-0.1 64 51.7 115.8 115.7 115.8zM480.7 217.7c0-0.4-0.1-0.8-0.1-1.2h-346.1c0 0.4-0.1 0.8-0.1 1.2v87.6c0 62 50.8 112.8 112.8 112.8h120.6c62 0 112.8-50.8 112.8-112.8v-87.6zM855.8 298h-285.8c-15.6 0-28.2 12.6-28.2 28.2s12.6 28.2 28.2 28.2h285.8c15.6 0 28.2-12.6 28.2-28.2 0-15.5-12.6-28.2-28.2-28.2zM855.8 417.8h-285.8c-15.6 0-28.2 12.6-28.2 28.2s12.6 28.2 28.2 28.2h285.8c15.6 0 28.2-12.6 28.2-28.2 0-15.5-12.6-28.2-28.2-28.2zM855.8 537.6h-285.8c-10.1 0-19.4 5.4-24.4 14.1s-5 19.5 0 28.2 14.4 14.1 24.4 14.1h285.8c15.6 0 28.2-12.6 28.2-28.2 0-15.5-12.6-28.2-28.2-28.2z" />
<glyph unicode="&#xe90b;" glyph-name="p-10" d="M512.169 436.525c-3.718 0-7.279 1.571-9.845 4.255l-201.511 215.075c-24.456 26.617-37.968 61.729-37.968 98.911 0 37.679 13.773 73.119 38.805 99.866 25.242 26.957 58.861 41.776 94.734 41.776 29.902 0 58.129-10.238 81.747-29.575 13.72-11.259 25.242-25.412 33.882-41.24 8.641 15.828 20.214 29.981 33.882 41.24 23.566 19.403 51.845 29.575 81.748 29.575 35.82 0 69.493-14.819 94.733-41.776 25.085-26.747 38.806-62.187 38.806-99.866 0-37.182-13.458-72.293-37.915-98.911l-0.419-0.405-200.885-214.618c-2.565-2.736-6.127-4.307-9.793-4.307zM7.707 218.778h120.657s74.416 82.48 154.853 100.547h343.902c27.651 0 50.273-22.622 50.273-50.273s-22.622-50.274-50.273-50.274h-146.682c-18.276 0-33.201-14.925-33.201-33.15 0-18.25 14.925-33.228 33.201-33.201l256.604 0.497 195.281 159.252c21.838 17.832 54.201 15.030 72.216-6.65 17.963-21.576 15.030-54.306-6.65-72.216l-282.736-233.72h-707.443v219.188z" />
<glyph unicode="&#xe90c;" glyph-name="p-11" d="M512 960c-282.77 0-512-229.23-512-512s229.23-512 512-512v0c282.77 0 512 229.23 512 512s-229.23 512-512 512v0zM235.52 372.809c-39.588 0-71.68 32.092-71.68 71.68s32.092 71.68 71.68 71.68v0c39.588 0 71.68-32.092 71.68-71.68s-32.092-71.68-71.68-71.68v0zM515.511 372.809c-39.588 0-71.68 32.092-71.68 71.68s32.092 71.68 71.68 71.68v0c39.588 0 71.68-32.092 71.68-71.68s-32.092-71.68-71.68-71.68v0zM795.209 372.809c-39.588 0-71.68 32.092-71.68 71.68s32.092 71.68 71.68 71.68v0c39.588 0 71.68-32.092 71.68-71.68s-32.092-71.68-71.68-71.68v0z" />
<glyph unicode="&#xe90d;" glyph-name="p-12" d="M905.051 709.43v-620.994c-2.974-6.723-4.396-15.257-9.438-19.911-6.594-6.077-15.903-9.18-24.048-13.576h-719.257c-18.36 3.879-29.737 14.869-33.358 33.358v620.994c0.517 1.164 1.422 2.198 1.681 3.362 3.103 16.808 13.188 26.634 30.255 28.444 11.248 1.164 22.756 1.293 34.133 1.552 10.602 0.259 21.204 0 32.323 0v98.263h196.525v-97.616h196.525v97.616h196.525v-98.263c19.006 0 36.848 0.388 54.82-0.129 13.188-0.388 26.634-2.069 34.909-13.964 3.879-5.56 5.689-12.671 8.404-19.135zM377.406 206.352v-1.422c25.859 0 51.846-0.905 77.576 0.259 17.196 0.776 34.392 3.62 51.2 7.37 10.473 2.327 18.489 9.051 19.911 21.463 6.465 56.372-37.624 115.2-93.867 121.277-30.772 3.362-62.19 2.974-93.091 1.422-63.612-3.232-99.426-54.303-104.986-94.901-4.913-35.943-2.198-51.329 43.96-54.949 33.099-2.715 66.327-0.517 99.297-0.517zM375.467 366.675c48.614-1.293 89.729 38.529 90.764 87.919 1.034 49.648-38.141 90.505-87.919 91.927-49.39 1.293-90.764-38.659-91.798-89.083-1.034-49.131 38.529-89.471 88.954-90.764zM266.99 791.531v-146.23h97.099v146.23h-97.099zM660.040 791.661v-146.489h96.84v146.489h-96.84zM561.519 497.778h244.364v47.968h-244.364v-47.968zM806.4 447.354h-244.364v-47.968h244.364v47.968zM806.271 349.22h-244.622v-47.968h244.622v47.968zM806.271 202.731v48.226h-244.493v-48.226h244.493z" />
<glyph unicode="&#xe90e;" glyph-name="p-13" d="M24.203 761.611h226.609c9.404 0 17.11-7.704 17.11-17.11v-117.185c0-9.404-7.704-17.11-17.11-17.11h-226.609c-9.403 0-17.109 7.704-17.109 17.11v117.186c0 9.404 7.704 17.109 17.109 17.109zM263.162 761.611l140.781-152.507-111.209-102.682-171.146 185.423 75.573 69.767zM24.203 286.724h226.609c9.404 0 17.11-7.703 17.11-17.136v-117.157c0-9.403-7.704-17.109-17.11-17.109h-226.609c-9.403 0-17.109 7.704-17.109 17.109v117.157c0 9.433 7.704 17.136 17.109 17.136zM52.699 135.322l578.065 626.289h206.043l-578.063-626.289zM630.764 760.478h214.939c9.404 0 17.109-7.704 17.109-17.109v-117.157c0-9.403-7.703-17.109-17.109-17.109h-226.609c-9.404 0-17.11 7.704-17.11 17.109v103.107l28.779 31.159zM606.687 286.866h226.609c9.403 0 17.109-7.704 17.109-17.109v-117.157c0-9.403-7.704-17.109-17.109-17.109h-198.453l-45.265 49.060v85.205c0 9.404 7.704 17.109 17.11 17.109zM599.549 396.914l171.146-185.394-82.315-76.027h-53.537l-146.488 158.739zM997.643 718.584c12.124-9.603 19.262-21.245 19.262-33.793s-7.139-24.161-19.262-33.764c0-0.227-138.854-146.786-152.055-159.702-8.554-8.329-19.036-13.399-31.555-14.957-32.292 2.494-51.836 18.611-53.763 53.763v309.319c2.889 34.841 20.226 54.018 53.763 53.791 12.067-0.368 21.754-4.192 29.516-10.849 14.617-12.605 154.093-162.337 154.093-163.81zM997.643 244.944c12.124-9.574 19.262-21.216 19.262-33.765s-7.139-24.161-19.262-33.764c0-0.227-138.854-146.786-152.055-159.702-8.554-8.329-19.036-13.399-31.555-14.957-32.292 2.494-51.836 18.611-53.763 53.763v309.32c2.889 34.841 20.226 54.018 53.763 53.791 12.067-0.368 21.754-4.192 29.516-10.878 14.617-12.576 154.093-162.308 154.093-163.81z" />
<glyph unicode="&#xe90f;" glyph-name="p-14" d="M256.621 431.409l207.12 137.881h96.493l207.168-137.882v-385.641h-150.542v138.739c0 57.693-47.172 104.889-104.843 104.889h-0.047c-57.659 0-104.855-47.196-104.855-104.889v-138.738h-150.494v385.641zM364.243 750.734h99.498v99.499h96.493v-99.499h99.522v-96.529h-99.522v-99.498h-96.493v99.498h-99.498zM20.879 260.369c-6.864-3.064-13.776-6.272-13.776-13.8v-187.025c0-7.53 6.176-13.777 13.776-13.777h183.226v297.33l-183.226-82.728zM1003.121 260.369c6.841-3.064 13.776-6.272 13.776-13.8v-187.025c0-7.53-6.175-13.777-13.776-13.777h-183.226v297.33l183.226-82.728z" />
<glyph unicode="&#xe910;" glyph-name="p-15" d="M745.28 191.936l-36.864 19.36c-0.823 0.454-1.804 0.721-2.848 0.721s-2.025-0.267-2.879-0.737l0.031 0.016-36.864-19.36 7.040 41.056c0.057 0.314 0.090 0.676 0.090 1.046 0 1.721-0.708 3.277-1.849 4.393l-29.825 29.057 41.216 5.984c1.191 0.191 2.238 0.704 3.079 1.446l-0.007-0.006c0.633 0.522 1.15 1.161 1.52 1.887l0.016 0.033 1.6 3.232 16.832 34.112 18.432-37.344c0.888-1.784 2.572-3.055 4.574-3.356l0.034-0.004 41.216-5.984-26.208-25.568-3.616-3.488c-0.676-0.674-1.201-1.499-1.522-2.419l-0.014-0.045c-0.19-0.591-0.3-1.27-0.3-1.975 0-0.353 0.028-0.7 0.081-1.039l-0.005 0.038 7.040-41.056zM384.736 267.488l-26.176-25.568-3.616-3.488c-0.685-0.674-1.22-1.498-1.554-2.419l-0.014-0.045c-0.17-0.581-0.268-1.247-0.268-1.937 0-0.367 0.028-0.727 0.081-1.078l-0.005 0.039 7.040-41.056-36.896 19.36c-0.817 0.46-1.793 0.73-2.832 0.73s-2.015-0.271-2.861-0.746l0.029 0.015-36.896-19.36 7.072 41.056c0.053 0.303 0.083 0.652 0.083 1.008 0 1.738-0.718 3.308-1.873 4.431l-0.001 0.001-29.792 29.056 41.184 5.984c1.203 0.185 2.262 0.699 3.111 1.446l-0.007-0.006c0.632 0.514 1.14 1.156 1.49 1.887l0.014 0.033 1.632 3.232 16.832 34.112 18.432-37.344c0.882-1.776 2.553-3.045 4.542-3.356l0.034-0.004 41.216-5.984zM551.712 191.936l-36.864 19.36c-0.823 0.454-1.804 0.721-2.848 0.721s-2.025-0.267-2.879-0.737l0.031 0.016-36.864-19.36 7.040 41.056c0.057 0.314 0.090 0.676 0.090 1.046 0 1.721-0.708 3.277-1.849 4.393l-29.825 29.057 41.216 5.984c1.191 0.191 2.238 0.704 3.079 1.446l-0.007-0.006c0.633 0.522 1.15 1.161 1.52 1.887l0.016 0.033 1.6 3.232 16.832 34.112 18.432-37.344c0.883-1.787 2.57-3.061 4.575-3.356l0.033-0.004 41.216-5.984-26.208-25.568-3.616-3.488c-0.676-0.674-1.201-1.499-1.522-2.419l-0.014-0.045c-0.19-0.591-0.3-1.27-0.3-1.975 0-0.353 0.028-0.7 0.081-1.039l-0.005 0.038 7.040-41.056zM384.736 448.256h256c17.673 0 32-14.327 32-32s-14.327-32-32-32h-256c-17.673 0-32 14.327-32 32s14.327 32 32 32v0zM443.136 664.832c0 0.032 0 0.069 0 0.106 0 38.757 31.419 70.176 70.176 70.176s70.176-31.419 70.176-70.176c0-24.282-12.333-45.684-31.076-58.283l-0.252-0.159 3.968-63.008h85.184c17.673 0 32-14.327 32-32s-14.327-32-32-32v0h-256c-17.673 0-32 14.327-32 32s14.327 32 32 32v0h84.064l4 63.776c-18.36 12.789-30.228 33.791-30.24 57.566v0.002zM800 896h-576c-52.928 0-96-43.072-96-96v-704c0-52.928 43.072-96 96-96h576c52.928 0 96 43.072 96 96v704c0 52.928-43.072 96-96 96z" />
<glyph unicode="&#xe911;" glyph-name="p-16" d="M205.97 953.163h612.061c73.355 0 133.351-59.996 133.351-133.351v-743.655c0-73.326-59.997-133.322-133.351-133.322h-612.061c-73.356 0-133.351 59.996-133.351 133.321v743.656c0 73.355 59.996 133.351 133.351 133.351zM512.006 824.052c-139.928 0-253.299-113.372-253.3-253.257 0-139.886 113.372-253.258 253.3-253.258 139.857 0 253.288 113.372 253.288 253.258 0 139.885-113.431 253.257-253.288 253.257zM295.529 206.547c-18.062 0-32.874-14.781-32.874-32.873 0-18.121 14.81-32.902 32.874-32.902h432.884c18.12 0 32.874 14.782 32.874 32.902 0 18.092-14.754 32.873-32.874 32.873h-432.884zM323.988 603.698h86.539c3.078 52.097 13.417 100.884 29.447 143.863-59.881-24.422-104.602-78.436-115.985-143.863zM471.22 603.698h95.091c-3.426 57.441-15.681 110.875-34.614 156.903-5.917 0.647-12.778 1.016-19.726 1.016-2.030 0-4.052-0.031-6.066-0.094l0.295 0.007c-19.181-46.262-31.552-100.015-34.979-157.832zM627.006 603.698h73.007c-10.339 59.386-48.091 109.306-99.724 136.313 14.461-41.121 23.813-87.237 26.717-136.313zM700.013 537.892h-73.007c-2.904-49.077-12.256-95.192-26.717-136.313 51.633 27.008 89.385 76.957 99.724 136.313zM566.312 537.892h-95.091c3.427-57.818 15.798-111.571 34.979-157.803 1.917-0.058 3.833-0.116 5.807-0.116 6.622 0 13.243 0.349 19.69 1.016 18.932 46.028 31.188 99.462 34.614 156.902zM410.527 537.892h-86.539c11.384-65.427 56.047-119.411 115.985-143.863-16.030 42.979-26.369 91.766-29.447 143.863z" />
<glyph unicode="&#xe912;" glyph-name="p-17" d="M165.981 946.207h685.286c19.843 0 36.104-16.233 36.104-36.075v-924.263c0-19.843-16.262-36.076-36.104-36.076h-685.286c-19.843 0-36.104 16.233-36.104 36.076v924.262c0 19.843 16.262 36.076 36.104 36.076zM586.153 825.83c-5.753 0-10.391-4.667-10.391-10.361v-107.080c0-5.724 4.638-10.362 10.391-10.362h107.080c5.694 0 10.332 4.638 10.332 10.362v107.079c0 5.694-4.638 10.361-10.332 10.361l-107.080 0.001zM586.153 447.090c-5.753 0-10.391-4.667-10.391-10.362v-107.080c0-5.694 4.638-10.361 10.391-10.361h107.080c5.694 0 10.332 4.667 10.332 10.361v107.080c0 5.695-4.638 10.362-10.332 10.362h-107.080zM586.153 636.446c-5.753 0-10.391-4.638-10.391-10.361v-107.080c0-5.695 4.638-10.362 10.391-10.362h107.080c5.694 0 10.332 4.667 10.332 10.362v107.079c0 5.723-4.638 10.361-10.332 10.361l-107.080 0.001zM324.017 825.83c-5.694 0-10.332-4.667-10.332-10.361v-107.080c0-5.724 4.638-10.362 10.332-10.362h107.080c5.723 0 10.391 4.638 10.391 10.362v107.079c0 5.694-4.667 10.361-10.391 10.361l-107.080 0.001zM324.017 447.090c-5.694 0-10.332-4.667-10.332-10.362v-107.080c0-5.694 4.638-10.361 10.332-10.361h107.080c5.723 0 10.391 4.667 10.391 10.361v107.080c0 5.695-4.667 10.362-10.391 10.362h-107.080zM324.017 636.446c-5.694 0-10.332-4.638-10.332-10.361v-107.080c0-5.695 4.638-10.362 10.332-10.362h107.080c5.723 0 10.391 4.667 10.391 10.362v107.079c0 5.723-4.667 10.361-10.391 10.361l-107.080 0.001zM460.155 191.573c-11.154 0-20.313-9.099-20.313-20.282v-175.854c0-11.153 9.158-20.282 20.313-20.282h96.938c11.153 0 20.313 9.129 20.313 20.282v175.853c0 11.184-9.159 20.282-20.313 20.282h-96.938zM76.337 5.594h871.324v-55.8h-871.324z" />
<glyph unicode="&#xe913;" glyph-name="p-18" d="M5.138 443.5h1013.722v-194.297h-87.466c-3.544 83.206-72.099 149.583-156.214 149.583-84.066 0-152.622-66.377-156.164-149.583h-205.704c-3.543 83.206-72.099 149.583-156.189 149.583s-152.646-66.377-156.189-149.583h-95.797v194.297zM5.138 443.5h1013.722c-7.229 31.31-39.496 100.584-103.887 110.47h-832.231c-47.443-14.602-76.598-86.581-77.604-110.47zM79.439 547.027h784.166l-183.454 223.836c-14.314 24.32-37.965 38.299-73.487 39.041h-349.804c-41.674-0.335-65.731-18.958-77.292-52.35l-100.129-210.526zM455.394 706.975h150.456l118.871-153.509h-269.328v153.509zM374.391 706.975v-153.509h-182.783l60.129 153.509h122.653zM257.124 398.785c86.341 0 156.333-69.991 156.333-156.332 0-86.365-69.992-156.357-156.333-156.357s-156.332 69.991-156.332 156.357c0 86.34 69.992 156.332 156.332 156.332zM257.124 325.992c-46.126 0-83.541-37.414-83.541-83.541 0-46.151 37.414-83.541 83.541-83.541s83.541 37.389 83.541 83.541c0 46.127-37.414 83.541-83.541 83.541zM775.182 398.785c86.365 0 156.357-69.991 156.357-156.332 0-86.365-69.991-156.357-156.357-156.357-86.318 0-156.309 69.991-156.309 156.357 0 86.34 69.991 156.332 156.309 156.332zM775.182 325.992c-46.103 0-83.541-37.414-83.541-83.541 0-46.151 37.438-83.541 83.541-83.541 46.151 0 83.541 37.389 83.541 83.541 0 46.127-37.391 83.541-83.541 83.541z" />
<glyph unicode="&#xe914;" glyph-name="p-19" d="M541.301 751.265l461.916-148.996c21.631-6.972 21.348-51.649 0-58.539l-461.916-149.008c-21.489-6.936-37.003-6.961-58.539 0.023l-461.893 148.985c-21.513 6.937-21.7 51.544 0 58.539l461.893 148.996c21.677 6.995 36.91 6.973 58.539 0.001zM798.894 424.179v-212.293c-70.678-44.408-173.509-72.389-287.963-72.389s-217.261 27.98-287.963 72.389v212.293l258.739-83.426c21.536-6.961 37.051-6.937 58.54-0.024l258.646 83.449zM118.591 520.424s-31.589 2.438-42.744-92.074l-0.375-3.070c-14.061-7.147-23.529-20.786-23.529-36.44 0-12.28 5.812-23.317 15.093-30.981-9.327-70.443-20.248-136.717-33.418-178.945 0 0-7.288-35.362 9.515-36.136 16.779-0.75 108.173 0 108.173 0s18.56 5.202 10.85 35.292c0 0-28.121 81.271-33.629 179.344 9.608 7.663 15.702 18.911 15.702 31.426 0 13.497-7.077 25.519-18.068 33.183 0.118 41.338 6.866 50.842 28.027 83.134l-35.597 15.267z" />
<glyph unicode="&#xe915;" glyph-name="q-0" d="M315.756 801.188c-13.119-11.979-18.508-30.231-14.032-47.457v-94.913c0-96.396 93.459-145.335 186.919-142.37v-326.724c-46.744 94.913-186.919 237.283-327.092 189.826 0 0 116.816-284.739 350.449-284.739s350.449 284.739 350.449 284.739c-140.202 47.457-280.349-94.913-327.092-189.826v326.725c93.459-2.908 186.89 45.975 186.89 142.37v94.913c4.563 17.225-0.856 35.477-13.975 47.457-13.474-4.396-24.666-12.692-32.559-23.543l-0.128-0.185-70.155-71.185-70.073 80.084c-6.047 12.888-21.42 18.422-34.338 12.376-5.456-2.62-9.756-6.92-12.309-12.221l-0.067-0.155-70.103-80.084-70.073 71.185c-8.046 11.019-19.24 19.309-32.252 23.596l-0.459 0.131z" />
<glyph unicode="&#xe916;" glyph-name="q-1" d="M395.52 202.56c0-30.080-19.232-42.688-43.008-42.688s-43.040 12.576-43.040 42.656 43.040 86.72 43.040 86.72 43.040-56.64 43.040-86.72zM555.072 202.56c0-30.080-19.264-42.688-43.040-42.688s-43.040 12.576-43.040 42.656 43.040 86.72 43.040 86.72 43.040-56.64 43.040-86.72zM715.904 202.56c0-30.080-19.264-42.688-43.040-42.688s-43.040 12.576-43.040 42.656 43.040 86.72 43.040 86.72 43.040-56.64 43.040-86.72zM896.064 447.968c0 212.096-171.936 384.032-384.032 384.032s-384.032-171.936-384.032-384.032c0-212.096 171.936-384.032 384.032-384.032s384.032 171.936 384.032 384.032zM960.064 447.968c0-247.424-200.608-448.032-448.032-448.032s-448.032 200.608-448.032 448.032c0 247.424 200.608 448.032 448.032 448.032s448.032-200.608 448.032-448.032zM640.864 384.48c-5.051-0.957-10.943-1.58-16.953-1.725l-0.135-0.003s-195.936-2.336-207.68 2.688c-71.648 8.192-127.68 68.512-127.68 142.336 0 79.424 64.576 144 144 144 46.272 0 90.048-22.624 117.152-60.48 8.32-11.648 23.36-16.32 36.8-11.52 11.107 4.283 23.954 6.828 37.377 6.975l0.063 0.001c61.76 0 112-50.24 112-112 0-55.904-41.344-101.952-94.944-110.272zM623.776 670.752c-12.16 0-24.32-1.376-36.672-4.16-38.233 42.465-93.358 69.077-154.701 69.184h-0.019c-114.817-0.146-207.854-93.183-208-207.986v-0.014c0-109.184 84.64-198.816 191.712-207.168 4.16-0.32 8.352-0.576 12.608-0.64 1.28 0 2.432-0.192 3.68-0.192l191.392-1.024c97.024 0 176 78.944 176 176s-78.976 176-176 176z" />
<glyph unicode="&#xe917;" glyph-name="q-2" d="M512.429 114.2c-6.8 3-14.599 3-21.298-0.2l-399.336-175.6c-3.4-1.6-7.1-2.4-10.8-2.4h-18.496c-14.101 0-25.499 11.4-25.499 25.5v973c0 14.1 11.399 25.5 25.498 25.5h899.862c14.098 0 25.497-11.4 25.497-25.5v-973c0-14.1-11.399-25.5-25.497-25.5-3.6 0-7.2 0.8-10.5 2.3l-439.43 175.9zM841.57 472.75c-0.12 188.080-147.557 340.964-329.203 340.964s-329.081-152.76-329.081-340.964c0-101.466 43.002-192.573 110.698-255.1l0.24 0.25c5.421-4.618 12.287-7.488 19.876-7.488 17.104 0 30.957 14.352 31.077 32.074v0.125c0 11.232-5.661 21.092-14.093 26.833-52.639 50.795-85.764 123.057-85.764 203.43-0.12 152.761 119.612 276.692 267.169 276.692s267.169-123.93 267.169-276.816c0-80.748-33.366-153.634-86.848-204.055-7.95-5.866-13.13-15.476-13.13-26.209 0-17.722 13.852-32.074 30.957-32.2 8.311 0 15.78 3.37 21.32 8.862 67.335 62.277 109.614 153.010 109.614 253.602zM512.48 594.285c-60.657 0-109.765-49.086-109.765-109.715s49.108-109.714 109.664-109.714c60.657 0 109.765 49.085 109.765 109.614v0.1c0.1 60.63-49.008 109.715-109.664 109.715zM574.35 222.645l-59.162 116.881c-2.28 5.038-7.363 8.519-12.972 8.519-5.61 0-10.694-3.48-12.972-8.519l-58.9-116.882c-0.877-1.74-1.14-3.847-1.14-5.862 0-8.244 6.486-15.023 14.375-15.023h117.536c7.889 0 14.375 6.779 14.375 15.023 0 1.74-0.263 3.572-1.14 5.313v0.55z" />
<glyph unicode="&#xe918;" glyph-name="q-3" d="M834.614 959.998h-645.738c-0.18 0.001-0.393 0.001-0.607 0.001-70.772 0-128.19-57.176-128.581-127.856v-576.126c0.392-70.717 57.809-127.893 128.581-127.893 0.213 0 0.427 0.001 0.64 0.002h645.82c0.18-0.001 0.393-0.001 0.607-0.001 70.766 0 128.177 57.179 128.552 127.857v576.125c-0.391 70.717-57.809 127.894-128.581 127.894-0.244 0-0.487-0.001-0.731-0.002h0.038zM511.658 837.003c0.827 0.009 1.803 0.015 2.781 0.015 146.738 0 265.692-118.954 265.692-265.692 0-126.886-88.946-232.998-207.888-259.386l-1.766-0.329c69.131-32.837 113.374-57.897 185.702-31.397-49.4-51.272-208.688-72.875-274.103-30.821-86.903 56.169-116.716 51.56-176.11 42.919 21.307 19.788 46.867 35.324 75.127 45.064l1.493 0.447c-83.565 45.843-139.27 133.225-139.27 233.619 0 146.674 118.903 265.577 265.577 265.577 0.972 0 1.943-0.005 2.913-0.016l-0.148 0.001zM360.032 388.518v105.424h20.394c24.801-86.989 57.033-101.104 125.127-106.288 1.593-0.131 3.449-0.205 5.322-0.205 20.268 0 38.498 8.722 51.143 22.617l0.050 0.056c5.987 9.661 9.535 21.38 9.535 33.927 0 4.921-0.546 9.715-1.58 14.323l0.082-0.435c-5.473 23.044-37.1 43.495-89.495 70.859-86.413 45.223-125.472 67.114-130.311 116.658-7.748 79.212 65.069 124.435 161.305 129.044 1.633 0.056 3.551 0.087 5.477 0.087 29.857 0 57.938-7.607 82.41-20.988l-0.898 0.449c12.933-6.337 43.207-23.332 47.182-3.457h24.772v-101.968l-22.179 0.864c-8.267 71.147-73.106 103.696-131.147 103.696-48.103 0-63.37-26.788-57.983-60.489 3.601-23.044 22.669-41.19 84.627-72.587 83.763-42.631 130.916-76.332 132.5-133.365 2.103-76.62-57.897-114.354-153.989-118.386-3.641-0.252-7.891-0.395-12.174-0.395-31.395 0-60.99 7.71-86.994 21.339l1.032-0.493c-17.455 9.505-37.935 28.516-42.746-1.152l-21.344 0.864zM770.034 64.18h-516.694c-35.396 0-64.090-28.694-64.090-64.090s28.694-64.090 64.090-64.090h516.694c35.396 0 64.090 28.694 64.090 64.090s-28.694 64.090-64.090 64.090v0z" />
<glyph unicode="&#xe919;" glyph-name="q-4" d="M625.791 827.891l256.687-255.578-207.922-208.84-256.698 255.59zM943.896 609.353l52.207-51.984c14.358-14.283 14.411-37.732 0.118-52.090l-251.252-252.348c-14.295-14.357-37.733-14.411-52.102-0.106l-52.197 51.973c-14.357 14.295-14.41 37.744-0.117 52.101l251.251 252.339c14.294 14.368 37.733 14.41 52.091 0.117zM615.42 936.405l52.208-51.978c14.357-14.305 14.411-37.733 0.117-52.102l-251.251-252.338c-14.294-14.368-37.744-14.411-52.102-0.118l-52.207 51.984c-14.358 14.294-14.4 37.732-0.106 52.101l251.241 252.334c14.294 14.362 37.743 14.41 52.101 0.117zM533.816 535.38l65.253-64.977-254.128-255.248-65.264 64.977zM344.588 377.233l100.066-99.628c20.742-20.657 20.807-54.52 0.171-75.252l-236.819-237.842c-20.646-20.742-54.509-20.817-75.24-0.16l-100.066 99.628c-20.742 20.647-20.817 54.51-0.171 75.252l236.809 237.832c20.645 20.742 54.508 20.817 75.251 0.17z" />
<glyph unicode="&#xe91a;" glyph-name="q-5" d="M318.492 946.349h387.037c29.697 0 53.989-24.301 53.989-53.987v-11.637c0-29.687-24.29-53.987-53.989-53.987h-387.037c-29.697 0-53.987 24.301-53.987 53.987v11.636c-0.001 29.687 24.289 53.989 53.987 53.989zM327.62 849.999h116.281v-352.165h-116.281zM215.49 227.062h593.039c76.288 0 138.689-62.412 138.689-138.701s-62.401-138.712-138.689-138.712h-593.039c-76.288 0-138.712 62.424-138.712 138.712 0.001 76.288 62.425 138.701 138.712 138.701zM327.62 527.327l-240.134-385.69 157.897 6.943 198.518 349.256zM237.488 318.849h518.286v-204.325h-518.286zM579.275 849.999h116.282v-352.165h-116.282zM695.557 527.327l240.155-385.69-157.918 6.943-198.519 349.256z" />
<glyph unicode="&#xe91b;" glyph-name="q-6" d="M987.712 424.896s-31.68-363.84-447.104-488.896v1024s265.792-271.36 483.392-245.12c0 0-24.192-230.016-36.288-289.984zM36.224 424.896c-12.032 59.968-36.224 289.984-36.224 289.984 217.536-26.24 483.392 245.12 483.392 245.12v-1024c-415.36 125.056-447.168 488.896-447.168 488.896z" />
<glyph unicode="&#xe91c;" glyph-name="q-7" d="M1008.909 641.121l-256.861-256.861c-14.185-14.185-37.185-14.185-51.372 0l-256.859 256.861c-14.187 14.185-14.187 37.185 0 51.372l256.859 256.859c14.187 14.187 37.186 14.187 51.372 0l256.861-256.859c14.185-14.187 14.185-37.186 0-51.372zM748.131 815.097c0 6.36-5.155 11.516-11.516 11.516h-24.149c-6.36 0-11.516-5.155-11.516-11.516v-213.052c0-6.36 5.155-11.516 11.516-11.516h24.149c6.36 0 11.516 5.155 11.516 11.516v213.052zM751.797 534.521c0 6.849-5.552 12.401-12.401 12.401h-26.043c-6.849 0-12.401-5.552-12.401-12.401v-26.043c0-6.849 5.552-12.401 12.401-12.401h26.043c6.849 0 12.401 5.552 12.401 12.401v26.043zM411.411 637.21l190.675-190.675c-14.875-13.578-31.461-25.311-49.432-34.788-0.078-3.090-0.129-6.204-0.129-9.354 0-20.67 1.722-40.117 4.752-57.147h70.773c9.785 0 17.716-7.932 17.716-17.716s-7.932-17.716-17.716-17.716h-372.042c-9.785 0-17.716 7.932-17.716 17.716s7.932 17.716 17.716 17.716h54.83c3.028 17.034 4.75 36.481 4.75 57.147 0 6.39-0.167 12.664-0.482 18.786-66.409 42.067-110.498 116.16-110.498 200.553 0 131.049 106.296 237.285 237.421 237.285 38.854 0 75.524-9.329 107.899-25.866l-138.516-138.516c-15.858-15.858-15.858-41.568 0-57.425zM863.701 199.414v-153.561h-859.28v153.561c0 28.688 15.013 51.944 33.532 51.944h792.216c18.519 0 33.532-23.256 33.532-51.944zM55.813-0.31v0.089h754.713c17.612 0 31.889-14.278 31.889-31.889s-14.278-31.889-31.889-31.889l-754.713 0.090c-16.783 0.923-30.118 14.786-30.118 31.799 0 17.015 13.335 30.876 30.118 31.801z" />
<glyph unicode="&#xe91d;" glyph-name="q-8" d="M745.28 191.936l-36.864 19.36c-0.823 0.454-1.804 0.721-2.848 0.721s-2.025-0.267-2.879-0.737l0.031 0.016-36.864-19.36 7.040 41.056c0.057 0.314 0.090 0.676 0.090 1.046 0 1.721-0.708 3.277-1.849 4.393l-29.825 29.057 41.216 5.984c1.191 0.191 2.238 0.704 3.079 1.446l-0.007-0.006c0.633 0.522 1.15 1.161 1.52 1.887l0.016 0.033 1.6 3.232 16.832 34.112 18.432-37.344c0.888-1.784 2.572-3.055 4.574-3.356l0.034-0.004 41.216-5.984-26.208-25.568-3.616-3.488c-0.676-0.674-1.201-1.499-1.522-2.419l-0.014-0.045c-0.19-0.591-0.3-1.27-0.3-1.975 0-0.353 0.028-0.7 0.081-1.039l-0.005 0.038 7.040-41.056zM384.736 267.488l-26.176-25.568-3.616-3.488c-0.685-0.674-1.22-1.498-1.554-2.419l-0.014-0.045c-0.17-0.581-0.268-1.247-0.268-1.937 0-0.367 0.028-0.727 0.081-1.078l-0.005 0.039 7.040-41.056-36.896 19.36c-0.817 0.46-1.793 0.73-2.832 0.73s-2.015-0.271-2.861-0.746l0.029 0.015-36.896-19.36 7.072 41.056c0.053 0.303 0.083 0.652 0.083 1.008 0 1.738-0.718 3.308-1.873 4.431l-0.001 0.001-29.792 29.056 41.184 5.984c1.203 0.185 2.262 0.699 3.111 1.446l-0.007-0.006c0.632 0.514 1.14 1.156 1.49 1.887l0.014 0.033 1.632 3.232 16.832 34.112 18.432-37.344c0.882-1.776 2.553-3.045 4.542-3.356l0.034-0.004 41.216-5.984zM551.712 191.936l-36.864 19.36c-0.823 0.454-1.804 0.721-2.848 0.721s-2.025-0.267-2.879-0.737l0.031 0.016-36.864-19.36 7.040 41.056c0.057 0.314 0.090 0.676 0.090 1.046 0 1.721-0.708 3.277-1.849 4.393l-29.825 29.057 41.216 5.984c1.191 0.191 2.238 0.704 3.079 1.446l-0.007-0.006c0.633 0.522 1.15 1.161 1.52 1.887l0.016 0.033 1.6 3.232 16.832 34.112 18.432-37.344c0.883-1.787 2.57-3.061 4.575-3.356l0.033-0.004 41.216-5.984-26.208-25.568-3.616-3.488c-0.676-0.674-1.201-1.499-1.522-2.419l-0.014-0.045c-0.19-0.591-0.3-1.27-0.3-1.975 0-0.353 0.028-0.7 0.081-1.039l-0.005 0.038 7.040-41.056zM384.736 448.256h256c17.673 0 32-14.327 32-32s-14.327-32-32-32h-256c-17.673 0-32 14.327-32 32s14.327 32 32 32v0zM443.136 664.832c0 0.032 0 0.069 0 0.106 0 38.757 31.419 70.176 70.176 70.176s70.176-31.419 70.176-70.176c0-24.282-12.333-45.684-31.076-58.283l-0.252-0.159 3.968-63.008h85.184c17.673 0 32-14.327 32-32s-14.327-32-32-32v0h-256c-17.673 0-32 14.327-32 32s14.327 32 32 32v0h84.064l4 63.776c-18.36 12.789-30.228 33.791-30.24 57.566v0.002zM800 896h-576c-52.928 0-96-43.072-96-96v-704c0-52.928 43.072-96 96-96h576c52.928 0 96 43.072 96 96v704c0 52.928-43.072 96-96 96z" />
<glyph unicode="&#xe91e;" glyph-name="q-9" d="M466.319 878.168l-183.304-71.177c-3.158-1.41-5.527-2.592-7.85-3.849l0.632 0.313c-7.567-3.871-13.738-8.222-18.627-13.345-10.769-11.031-14.611-24.754-14.087-44.239v-216.252l-191.163-71.672c-11.177-3.406-21.305-9.299-29.163-17.071-10.886-10.259-17.347-23.821-16.765-41.022v-134.146l-0.058-89.993c0-34.431 6.636-41.94 37.196-58.356l193.957-102.275c28.407-10.623 40.69-15.687 71.657 0l186.332 96.338 0.175 0.117 0.175 0.087 0.174 0.116 0.174 0.088 0.233 0.116 0.175 0.117 0.233 0.116 0.233 0.117 0.233 0.116 0.233 0.117 0.233 0.145 0.291 0.117 0.233 0.116 0.292 0.146 0.292 0.116 0.291 0.146 0.291 0.117 0.35 0.116 0.291 0.146 0.349 0.145 0.292 0.117 0.349 0.116 0.35 0.146 0.349 0.117 0.407 0.116 0.349 0.116 0.349 0.117 0.407 0.117 0.407 0.145 0.407 0.087 1.222 0.349 0.466 0.087 0.407 0.117 0.466 0.087 0.466 0.088 0.931 0.174 0.466 0.059 0.466 0.087 0.466 0.058 0.524 0.059 0.466 0.058h0.058l0.466 0.058 0.524 0.029 0.524 0.058 0.524-0.058 0.525-0.029 0.466-0.058 0.524-0.058 0.466-0.059 0.524-0.058 0.466-0.087 0.466-0.059 1.397-0.262 0.407-0.087h0.058l0.407-0.117 0.407-0.087 0.466-0.116 0.814-0.233 0.35-0.087 0.407-0.145 0.814-0.233 0.699-0.231 0.407-0.117 0.291-0.146 0.699-0.232 0.35-0.145 0.291-0.146 0.291-0.116 0.35-0.117 0.291-0.146 0.291-0.116 0.233-0.146 0.291-0.116 0.758-0.379 0.699-0.348 0.175-0.117 0.233-0.116 0.175-0.088 0.175-0.116 0.174-0.087 0.175-0.117 0.175-0.087 0.116-0.088 0.175-0.087 0.117-0.087 0.116-0.059 0.117-0.087 0.116-0.058 0.118-0.118 0.174-0.087 0.059-0.058v-0.030h0.058l0.058-0.029v-0.029l184.935-95.435c30.909-15.687 43.25-10.623 71.656 0l190.465 100.413c25.903 13.768 39.235 20.229 40.515 51.662 2.096 30.444 0.117 67.379 0.117 98.551v134.145c0.581 17.202-5.88 30.764-16.822 41.023-7.859 7.772-17.929 13.665-29.164 17.071l-191.104 71.672-0.059 216.252c0.582 19.486-3.26 33.209-14.028 44.239-4.889 5.123-11.118 9.474-18.627 13.345-4.482 2.372-8.5 4.060-13.156 5.865l-177.366 68.848c-13.33 5.195-30.794 12.777-45.288 12.704-14.495 0.074-31.959-7.509-45.288-12.704zM272.71 477.375l201.816-82.79-201.816-82.775-201.757 82.775 201.757 82.79zM751.024 477.375l201.758-82.79-201.758-82.775-201.815 82.775 201.815 82.79zM546.358 603.459l165.667 70.464v-144.347l-165.667-67.626v141.51zM308.51 249.35l165.667 76.11v-152.802l-165.667-84.551v161.242zM784.263 249.35l165.668 76.11v-152.802l-165.668-84.551v161.242zM509.86 831.586l201.757-82.789-201.757-82.761-201.758 82.761 201.758 82.789z" />
<glyph unicode="&#xe91f;" glyph-name="q-10" d="M844.744 804.84c102.669-91.976 161.448-223.186 161.784-361.004 0-272.076-220.34-490.361-494.526-490.361-274.191 0-494.531 218.374-494.531 490.295 0.335 137.819 59.137 269.029 161.783 361.004 22.614 13.417 54.047 17.937 85.48-4.387 31.522-26.7 36.031-62.385 13.417-84.709-76.282-66.828-125.753-160.433-125.753-271.841 0-196.197 161.783-356.641 359.603-356.641 197.815 0 359.597 160.444 359.597 356.641 0 106.888-49.471 205.014-125.752 271.841-9.108 13.428-18.015 49.035 13.417 84.777 22.751 24.076 60.411 26.006 85.481 4.386zM450.115 875.619v0.078-426.995c0-35.596 31.432-66.749 67.47-66.749 35.898 0 67.397 31.153 67.397 66.749v426.995c0 35.607-31.433 66.828-67.464 66.828-35.904 0-67.402-31.22-67.402-66.906z" />
<glyph unicode="&#xe920;" glyph-name="q-11" d="M583.622-49.642h-270.263c-27.651 0-50.279 22.627-50.279 50.278v482.701c0 101.987 83.429 185.427 185.416 185.427 101.975 0 185.416-83.44 185.416-185.427v-482.701c0-27.651-22.627-50.278-50.289-50.278zM356.211 945.641c59.698 0 108.092-48.394 108.092-108.093s-48.394-108.092-108.092-108.092-108.093 48.394-108.093 108.092c0 59.699 48.394 108.093 108.093 108.093zM356.211 874.965c-20.679 0-37.416-16.748-37.416-37.416 0-20.657 16.737-37.416 37.416-37.416 20.657 0 37.416 16.76 37.416 37.416 0 20.668-16.76 37.416-37.416 37.416zM259.746 799.829h377.185v-87.998h-377.185zM404.497 731.124h87.998v-128.879h-87.998zM259.746 799.829s-152.697-28.192-181.388-198.105c-8.141-48.178 68.38-59.459 78.060-13.262 6.8 32.523 30.964 114.533 103.329 123.369 97.33 11.888-0.001 87.998-0.001 87.998zM946.246 894.106l-363.88-94.277v-87.998l363.88-88.789z" />
<glyph unicode="&#xe921;" glyph-name="q-12" d="M889.751 815.315l1.436-1.479c117.278-120.579 145.784-295.897 86.759-443.19-106.070 69.044-249.473 58.188-344.034-33.767-10.648-10.36-20.418-21.493-29.266-33.353l-0.525-0.736-405.651 417.117 106.476 103.55c163.058 158.586 426.227 154.92 584.805-8.143zM559.456 210.020l-426.334 438.379c-53.238-83.191-44.493-195.678 27.155-269.374l274.485-282.223c37.592-38.664 86.33-60.289 136.418-64.789-23.511 56.646-27.37 119.422-11.724 178.007zM291.979 315.951l83.394-85.751c12.109-12.464 11.016-31.828-0.621-44.698l-196.858-217.464c-11.66-12.892-32.577-11.842-44.687 0.621l-109.413 112.499c-12.13 12.453-12.602 33.392 0.621 44.698l222.855 190.716c13.223 11.295 32.577 11.831 44.708-0.621zM957.777 265.433c70.212-72.184 68.605-187.64-3.601-257.852-72.185-70.213-187.641-68.605-257.853 3.59s-68.605 187.651 3.58 257.864c72.206 70.212 187.663 68.604 257.875-3.602z" />
<glyph unicode="&#xe922;" glyph-name="q-13" d="M502.8 257.3c-0.9 5.9-4 11.1-8.8 14.5-4.8 3.5-10.6 5-16.5 4.1s-11-4-14.5-8.8l-41.8 325.7c2.6-5.2 7-9.1 12.6-11s11.8-1.4 17.1 1.2c5.2 2.6 9.1 7 11 12.6 1.9 5.7 1.4 11.9-1.2 17.2-35.5 70.2-79 107.9-129.3 112-40.3 3.4-99.6-12-153.7-104.5-34.1-58.5-62-141.6-78.5-234.1-9.9-54.8 0.4-104 29.7-142.2 33.7-43.4 90.3-70.8 159.8-77.5v150.9l-68.5 36.7c-5.2 2.7-9.1 7.4-10.8 13.1s-1.1 11.7 1.7 16.9c2.7 5.2 7.4 9.1 13.1 10.8s11.7 1.1 16.9-1.7l47.6-25.4v64.7c0 12.2 9.9 22.1 22.1 22.1s22.1-9.9 22.1-22.1v-267.2c26.4 1.1 51.5 5.5 74.7 12.9 38.9 12.9 70.4 34.5 91.1 62.6 3.5 4.8 5 10.6 4.1 16.5zM293.3 166.1c-1.5 0.1-3.1 0.3-4.6 0.4v-117.6c0-12.2 9.9-22.1 22.1-22.1s22.2 10 22.1 22.3v116.2c-4.4-0.2-8.8-0.3-13.3-0.3-7.9 0-16.5 0.4-26.3 1.1zM920.6 364.8c-45.6 37.6-76.2 83.9-76.2 115.2 0 23.4 19.2 47.7 54 68.5 8.3 4.9 12.5 14.8 10.3 24.1-21.5 93.4-86.6 311.6-225.8 323-72.8 5.9-139.9-40.1-194.2-133.1-44.2-75.7-80.4-183.5-101.8-303.4-12.4-70.1 0.6-132.5 37.5-180.5 43.6-56.6 118.1-91.8 209.8-99.2 0.4 0 0.7 0 1.1-0.1v121.9c-3.5 1.4-6.6 3.5-8.9 6.4l-91.4 109.7c-3.8 4.5-5.6 10.3-5.1 16.2s3.4 11.3 8 15.1c4.5 3.8 10.3 5.6 16.1 5.1 5.9-0.5 11.3-3.4 15.1-8l66.2-79.4v290.2c0 12.2 9.9 22.1 22.1 22.1s22.1-9.9 22.1-22.1v-138.2l74.7 84.9c8.2 9.2 22.2 10 31.2 2 9.1-8.2 10-22.2 1.9-31.2l-101.3-115.2c-1.8-2.1-4-3.8-6.5-5.1v-275.5c49.5 1.4 96.1 11.9 135.4 30.3 60 28.8 99.1 75.2 113.1 134.2 1.9 8-1 16.7-7.4 22.1zM639.3 179.1v-156.9c0-10 8.1-18.1 18.1-18.1s18.1 8.1 18.1 18.1v156c-2.6 0-5.2-0.1-7.8-0.1-9.3-0.1-18.9 0.3-28.4 1zM677.5 22.1c0.1-11.2-8.9-20.1-20.1-20.1s-20.1 8.9-20.1 20.1v157.1c-0.7 0-1.3 0.1-2 0.1v-157.2c0-12.2 9.9-22.1 22.1-22.1s22.2 9.9 22.1 22.1v156.1c-0.7 0-1.3 0-2-0.1v-156zM675.5 22.1c0-10-8.1-18.1-18.1-18.1s-18.1 8.1-18.1 18.1v157c-0.7 0-1.3 0.1-2 0.1v-157.1c0-11.2 8.9-20.1 20.1-20.1s20.2 8.9 20.1 20.1v156h-2v-156z" />
<glyph unicode="&#xe923;" glyph-name="q-14" d="M738.821 696.76c0 27.281 0.388 53.398-0.259 79.386-0.259 10.214 4.008 16.162 12.541 20.299 8.404 4.137 13.188-1.81 18.23-6.853 43.83-43.83 87.79-87.661 131.62-131.62 8.792-8.792 8.792-14.61-0.259-23.661-45.382-45.511-90.893-90.893-136.404-136.404-2.069-2.069-4.267-4.913-6.853-5.689-4.396-1.293-9.826-2.844-13.576-1.164-2.844 1.164-4.913 7.111-4.913 10.99-0.388 25.471-0.259 50.812-0.259 76.283v10.602c-2.327 0.517-4.008 1.034-5.689 1.034-41.891-0.129-83.653 0-125.543-1.034-8.792-0.259-18.877-3.362-26.117-8.404-19.006-13.317-33.875-30.513-47.063-50.166-20.945-31.16-32.84-66.715-50.941-99.168-9.568-17.196-16.032-36.073-24.824-53.657-11.766-23.661-22.368-48.356-37.107-70.077-41.374-61.026-95.935-102.141-172.994-104.081-37.366-0.905-74.731-0.259-112.097-0.129-11.378 0-19.394 6.853-19.653 18.23-0.517 23.919-0.388 47.838 0 71.758 0.129 9.956 9.051 16.42 21.463 16.549 33.616 0.129 67.232 0.388 100.848-0.129 19.394-0.259 37.495 3.749 52.105 16.549 10.214 9.051 18.618 20.299 27.41 30.901 31.030 37.107 49.648 80.549 67.362 125.285 18.618 47.063 41.762 92.574 72.663 133.172 39.952 52.364 93.091 80.549 159.677 80.937 39.693 0.517 79.386 0.259 120.63 0.259zM514.756 400.937c9.568-15.774 17.972-32.97 29.349-47.968 16.937-22.109 39.046-40.21 67.491-41.891 41.632-2.457 83.653-0.646 127.224-0.646v11.766c0 23.143 0.259 46.287-0.129 69.56-0.129 9.051 4.784 13.834 11.636 17.325 7.24 3.749 12.541 0.259 17.713-4.913 44.218-44.477 88.695-88.824 133.042-133.301 8.533-8.533 8.792-19.782 0.259-28.444-45.899-46.028-91.798-92.186-138.214-137.697-4.396-4.267-12.8-7.499-18.489-6.465-8.404 1.552-12.024 8.921-11.766 18.747 0.776 22.368 0.259 44.865 0.259 67.232 0 4.008-0.388 8.016-0.646 13.317h-13.964c-39.176 0-78.481 0.129-117.657 0-30.513-0.129-58.44 10.214-86.238 20.687-5.042 1.939-7.887 9.697-12.154 14.222-14.869 15.774-30.255 31.030-44.606 47.192-2.457 2.844-3.103 10.085-1.293 13.576 19.006 36.073 38.659 71.628 58.182 107.701zM350.684 485.624c-5.818 11.895-10.085 24.436-17.584 34.78-17.455 24.048-30.642 49.907-64.517 60.509-33.228 10.343-65.422 7.499-98.263 9.18-11.507 0.646-23.143 0.259-34.78 0.129-9.051-0.129-13.705 3.232-13.576 13.188 0.388 26.505 0.129 53.010 0.129 79.515 0 10.214 6.594 19.135 16.291 19.006 48.097-0.646 96.453 5.172 144.032-5.172 55.079-11.895 95.806-44.994 127.354-90.246 1.681-2.327 2.198-7.24 0.905-9.697-19.523-36.719-39.434-73.309-59.992-111.192z" />
<glyph unicode="&#xe924;" glyph-name="q-15" d="M6.178 207.078h121.032s74.638 82.702 155.318 100.858h344.932c27.735 0 50.419-22.696 50.419-50.428 0-27.735-22.685-50.428-50.419-50.428h-147.14c-18.307 0-33.28-14.984-33.28-33.28 0-18.285 14.964-33.321 33.28-33.28l257.414 0.497 195.862 159.728c21.923 17.88 54.36 15.086 72.453-6.674 17.98-21.639 15.055-54.461-6.674-72.432l-283.615-234.428h-709.584v219.867zM567.413 487.045c65.879 10.962 100.369 53.517 100.369 104.586 0 63.056-49.727 85.497-94.598 102.473-35.77 13.339-69.121 22.441-69.121 47.289 0 19.414 14.548 32.752 44.872 32.752 25.469 0 49.107-12.13 73.367-29.105l40.015 53.963c-24.361 18.143-55.365 35.83-94.903 40.594v62.061c0 3.921-3.211 7.131-7.132 7.131h-49.382c-3.911 0-7.121-3.21-7.121-7.131v-65.86c-51.688-13.044-83.394-50.348-83.394-99.252 0-56.391 49.727-82.469 92.771-98.835 35.779-13.949 70.949-25.469 70.949-50.936 0-21.222-15.157-35.77-49.118-35.77-31.533 0-60.638 13.339-90.952 36.988l-40.625-55.792c26.423-22.095 63.493-39.233 100.369-45.41v-64.621c0-3.921 3.21-7.121 7.121-7.121h49.382c3.921 0 7.132 3.2 7.132 7.121v64.873z" />
<glyph unicode="&#xe925;" glyph-name="q-16" horiz-adv-x="1025" d="M3.55 690.347c32.427-11.947 64.853-22.187 95.573-32.427 29.013-10.24 56.32-13.653 85.333-3.413 15.36 5.12 29.013 17.067 42.667 25.6 39.253 22.187 76.8 44.373 119.467 58.027 44.373 15.36 85.333 10.24 122.88-18.773 8.533-6.827 8.533-10.24-1.707-15.36-40.96-22.187-80.213-44.373-117.76-69.973-40.96-25.6-59.733-73.387-47.787-114.347 11.947-47.787 69.973-98.987 139.947-66.56 34.133 15.36 69.973 30.72 104.107 46.080 29.013 13.653 51.2 8.533 75.093-13.653l189.44-189.44c15.36-15.36 18.773-39.253 8.533-58.027-10.24-17.067-30.72-22.187-52.907-18.773-17.067 1.707-27.307 11.947-37.547 22.187l-46.080 46.080c-3.413 1.707-6.827 8.533-10.24 3.413-5.12-3.413 0-8.533 1.707-11.947 17.067-20.48 34.133-42.667 58.027-58.027 17.067-10.24 22.187-32.427 15.36-52.907-6.827-18.773-25.6-29.013-46.080-25.6-17.067 1.707-32.427 6.827-44.373 22.187-18.773 22.187-40.96 42.667-63.147 61.44-3.413 3.413-6.827 6.827-11.947 6.827 0-8.533 5.12-13.653 10.24-18.773 17.067-17.067 32.427-34.133 49.493-51.2 6.827-6.827 11.947-13.653 15.36-22.187 6.827-20.48 1.707-42.667-13.653-52.907-17.067-11.947-42.667-10.24-58.027 5.12l-61.44 66.56-10.24 10.24c-3.413 1.707-6.827 5.12-10.24 1.707s-3.413-6.827-1.707-11.947c1.707-3.413 3.413-6.827 6.827-8.533 13.653-15.36 29.013-30.72 42.667-44.373 8.533-8.533 15.36-18.773 17.067-32.427 1.707-17.067-3.413-34.133-20.48-42.667s-35.84-8.533-51.2 3.413c-8.533 6.827-15.36 15.36-23.893 22.187-3.413 3.413-3.413 6.827-3.413 11.947 3.413 46.080-20.48 88.747-63.147 107.52-5.12 1.707-8.533 5.12-10.24 11.947-11.947 29.013-30.72 51.2-61.44 59.733-5.12 1.707-8.533 5.12-10.24 10.24-8.533 29.013-29.013 47.787-56.32 56.32-5.12 1.707-8.533 5.12-10.24 10.24-15.36 42.667-47.787 66.56-92.16 68.267-42.667 1.707-76.8-17.067-98.987-54.613-11.947-20.48-11.947-20.48-32.427-11.947-10.24 3.413-25.6 5.12-30.72 11.947-6.827 8.533-1.707 22.187-1.707 34.133v305.493c1.707 1.707 1.707 5.12 1.707 11.947zM1025.843 499.2v-143.36c0-8.533-1.707-11.947-11.947-13.653-25.6-5.12-52.907-10.24-78.507-17.067-32.427-8.533-58.027 0-81.92 23.893-66.56 68.267-134.827 134.827-201.387 201.387-22.187 22.187-47.787 29.013-76.8 15.36-35.84-17.067-71.68-35.84-105.813-54.613-17.067-8.533-35.84-17.067-54.613-23.893-29.013-10.24-61.44 3.413-73.387 32.427s0 63.147 29.013 75.093c37.547 15.36 71.68 37.547 105.813 56.32 47.787 25.6 95.573 51.2 143.36 78.507 34.133 18.773 64.853 15.36 92.16-8.533 35.84-29.013 71.68-59.733 105.813-88.747 17.067-13.653 35.84-18.773 56.32-13.653 46.080 10.24 92.16 20.48 138.24 32.427 8.533 1.707 11.947 1.707 11.947-8.533 1.707-47.787 1.707-95.573 1.707-143.36zM309.043 91.307c-23.893-5.12-47.787-17.067-68.267 1.707-22.187 18.773-11.947 42.667-5.12 66.56-22.187-8.533-44.373-20.48-64.853 1.707-20.48 20.48-10.24 42.667-1.707 64.853-6.827-3.413-11.947-5.12-17.067-6.827-37.547-15.36-64.853 17.067-59.733 47.787 3.413 29.013 18.773 54.613 46.080 69.973 20.48 11.947 39.253 13.653 59.733 0 18.773-11.947 25.6-29.013 23.893-51.2v-8.533c1.707-3.413 3.413-1.707 6.827-1.707 37.547 6.827 64.853-18.773 61.44-58.027-1.707-8.533 0-10.24 10.24-10.24 37.547 3.413 63.147-27.307 54.613-64.853 0-3.413-6.827-10.24 5.12-8.533 29.013 3.413 49.493-5.12 59.733-27.307 11.947-22.187 8.533-52.907-11.947-71.68-22.187-22.187-51.2-32.427-81.92-23.893-22.187 6.827-32.427 29.013-25.6 51.2 0 10.24 3.413 18.773 8.533 29.013z" />
<glyph unicode="&#xe926;" glyph-name="q-17" d="M619.463 274.176c0-155.364-125.952-281.287-281.316-281.287-155.278 0-281.259 125.924-281.259 281.287 0 155.335 125.924 281.287 281.287 281.287 36.65 0 66.361 29.711 66.361 66.361v0c0 155.364 125.952 281.287 281.316 281.287 155.278 0 281.259-125.924 281.259-281.287 0-155.335-125.924-281.287-281.287-281.287-36.65 0-66.361-29.711-66.361-66.361v0zM682.667 533.333c47.128 0 85.333 38.205 85.333 85.333s-38.205 85.333-85.333 85.333v0c-47.128 0-85.333-38.205-85.333-85.333s38.205-85.333 85.333-85.333v0zM341.333 220.444c31.419 0 56.889 25.47 56.889 56.889s-25.47 56.889-56.889 56.889v0c-31.419 0-56.889-25.47-56.889-56.889s25.47-56.889 56.889-56.889v0z" />
<glyph unicode="&#xe927;" glyph-name="q-18" d="M362.748 704.052c-23.553 0-42.646-19.093-42.646-42.646s19.093-42.646 42.646-42.646h341.165c23.553 0 42.646 19.093 42.646 42.646s-19.093 42.646-42.646 42.646v0zM810.526 618.761c23.553 0 42.646 19.093 42.646 42.646s-19.093 42.646-42.646 42.646v0h-33.264c7.457-12.163 11.874-26.888 11.874-42.646s-4.417-30.483-12.079-43.007l0.205 0.361zM256.134 704.052c-23.553 0-42.646-19.093-42.646-42.646s19.093-42.646 42.646-42.646h33.264c-7.457 12.163-11.874 26.888-11.874 42.646s4.417 30.483 12.079 43.007l-0.205-0.361zM810.526 843.716c-23.742-36.95-50.944-68.83-81.878-96.64l-0.428-0.378h18.338c42.646 0 116.422 86.997 133.907 117.915 5.751 9.756 10.495 21.036 13.648 32.962l0.212 0.941c1.236 4.004 1.947 8.606 1.947 13.375 0 24.567-18.884 44.723-42.929 46.744l-0.171 0.012c-5.128 0.862-11.035 1.354-17.058 1.354s-11.931-0.493-17.685-1.439l0.627 0.085c8.322-13.478 13.252-29.814 13.252-47.303 0-7.966-1.023-15.692-2.945-23.056l0.14 0.633c-4.6-17.163-11.092-32.196-19.42-45.995l0.443 0.791zM67 72.684c-1.218 12.242-1.912 26.46-1.912 40.841 0 50.335 8.508 98.683 24.164 143.684l-0.929-3.068c36.462 126.018 101.71 208.963 183.163 304.489 2.559 2.985 8.956 9.595 17.485 17.485h-32.837c-23.15-11.203-42.671-26.429-58.43-44.954l-0.208-0.25c-79.321-92.967-140.73-171.862-174.634-288.711-14.329-39.301-22.616-84.672-22.616-131.978 0-11.261 0.47-22.413 1.39-33.436l-0.097 1.442c4.479-50.936 37.669-93.125 83.12-110.577l0.892-0.301c12.279-4.858 27.717-9.755 43.53-13.707l2.741-0.58c-35.562 29.075-59.566 71.127-64.751 118.829l-0.070 0.792zM1001.152 242.2c-33.903 116.849-95.313 195.743-174.634 288.711-15.966 18.776-35.488 34.001-57.59 44.745l-1.047 0.459h-33.050c8.316-7.676 14.926-14.499 17.485-17.485 81.453-95.526 146.488-178.472 183.163-304.489 14.727-41.933 23.235-90.281 23.235-140.616 0-14.38-0.694-28.599-2.052-42.623l0.139 1.782c-5.027-48.382-28.733-90.423-63.673-119.383l-0.296-0.238c18.338 4.569 33.555 9.462 48.342 15.215l-2.712-0.928c45.786 18.218 78.388 60.389 82.489 110.626l0.031 0.465c1.001 10.569 1.572 22.853 1.572 35.27 0 46.007-7.838 90.184-22.251 131.267l0.849-2.778zM186.195 864.612c17.485-30.918 91.262-117.915 133.907-117.915h18.338c-31.357 28.192-58.559 60.071-81.192 95.173l-1.114 1.846c-7.569 12.95-13.781 27.928-17.856 43.764l-0.268 1.227c-1.862 6.877-2.932 14.772-2.932 22.918 0 17.285 4.817 33.445 13.181 47.211l-0.228-0.404c-5.128 0.862-11.035 1.354-17.058 1.354s-11.931-0.493-17.685-1.439l0.627 0.085c-24.283-1.959-43.247-22.148-43.247-46.767 0-4.686 0.687-9.212 1.966-13.482l-0.085 0.332c3.292-12.862 7.968-24.146 13.993-34.552l-0.347 0.649zM292.809 864.612c17.485-30.918 91.262-117.915 133.907-117.915h213.228c42.646 0 116.422 86.997 133.907 117.915 5.751 9.756 10.495 21.036 13.648 32.962l0.212 0.941c1.236 4.004 1.947 8.606 1.947 13.375 0 24.567-18.884 44.723-42.929 46.744l-0.171 0.012c-4.884 0.655-10.53 1.029-16.263 1.029-18.725 0-36.518-3.989-52.575-11.165l0.819 0.327c-29.852-11.728-59.491-28.999-88.276-42.646-16.917-6.367-36.468-10.109-56.877-10.235h-0.055c-0.105 0-0.23 0-0.354 0-20.125 0-39.428 3.516-57.33 9.966l1.178-0.371c-28.786 14.286-58.424 31.558-88.276 42.646-15.567 7.187-33.782 11.379-52.976 11.379-5.453 0-10.826-0.338-16.101-0.995l0.63 0.064c-24.311-1.928-43.308-22.131-43.308-46.772 0-4.763 0.71-9.36 2.029-13.691l-0.087 0.332c3.437-12.874 8.25-24.148 14.415-34.526l-0.342 0.622zM894.538 242.2c-33.903 116.849-95.313 195.743-174.634 288.711-15.966 18.776-35.488 34.001-57.59 44.745l-1.047 0.459h-298.519c-23.15-11.203-42.671-26.429-58.43-44.954l-0.208-0.25c-79.321-92.967-140.73-171.862-174.634-288.711-14.329-39.301-22.616-84.672-22.616-131.978 0-11.261 0.47-22.413 1.39-33.436l-0.097 1.442c4.479-50.936 37.669-93.125 83.12-110.577l0.892-0.301c57.19-19.868 123.106-31.342 191.703-31.342 7.945 0 15.854 0.154 23.724 0.459l-1.133-0.035h210.882c6.795-0.275 14.771-0.431 22.783-0.431 68.605 0 134.528 11.477 195.957 32.616l-4.232-1.266c45.786 18.218 78.388 60.389 82.489 110.626l0.031 0.465c1.001 10.569 1.572 22.853 1.572 35.27 0 46.007-7.838 90.184-22.251 131.267l0.849-2.778zM697.729 390.394l-134.334-134.12h76.549c11.776 0 21.323-9.547 21.323-21.323s-9.547-21.323-21.323-21.323v0h-106.614v-63.968h106.614c11.776 0 21.323-9.547 21.323-21.323s-9.547-21.323-21.323-21.323v0h-106.614v-85.291c0-11.776-9.547-21.323-21.323-21.323s-21.323 9.547-21.323 21.323v0 85.291h-106.614c-11.776 0-21.323 9.547-21.323 21.323s9.547 21.323 21.323 21.323v0h106.614v63.968h-106.614c-11.776 0-21.323 9.547-21.323 21.323s9.547 21.323 21.323 21.323v0h76.549l-134.12 134.12c-3.187 3.704-5.127 8.56-5.127 13.87 0 11.776 9.547 21.323 21.323 21.323 5.309 0 10.165-1.94 13.898-5.151l-0.028 0.024 155.443-155.443 155.443 155.443c3.934 4.574 9.729 7.453 16.196 7.453 11.776 0 21.323-9.547 21.323-21.323 0-6.467-2.879-12.262-7.425-16.172l-0.028-0.024z" />
<glyph unicode="&#xe928;" glyph-name="q-19" horiz-adv-x="1138" d="M1123.375 624.356l-168.77 269.274c-22.754 36.030-75.852 66.37-117.57 66.37h-536.652c-41.719 0-94.815-30.34-117.57-66.37l-168.771-269.274c-22.756-36.030-17.068-92.919 11.377-123.26l491.14-540.444c13.275-15.17 32.238-22.756 51.2-22.756s37.927 9.482 51.2 22.756l491.142 540.444c30.341 30.341 36.030 87.23 13.274 123.26zM772.561 635.733l-140.326-329.955c-15.17-36.030-43.615-66.37-62.578-66.37s-45.511 30.34-62.578 66.37l-140.326 329.955c-15.17 36.030-3.792 66.37 24.652 66.37 30.34 0 66.37-30.34 81.54-68.266l68.267-164.978c15.17-37.926 39.823-37.926 54.993 0l68.267 164.978c15.17 37.926 51.2 68.267 81.54 68.267s41.719-28.445 26.549-66.37z" />
<glyph unicode="&#xe929;" glyph-name="q-20" d="M348.672 312.32c9.728 10.24 18.432 19.456 24.064 25.6-13.312 32.256-29.184 60.416-37.376 90.624-15.872 56.832-7.168 112.128 22.528 162.816 6.656 11.776 5.12 17.92-4.608 26.624-17.92 15.36-34.816 32.256-52.736 49.664-5.12-4.096-9.728-8.192-14.848-11.776-39.424-27.648-80.896-32.256-123.904-10.752-45.056 23.040-66.56 61.952-66.048 111.616 1.536 81.92 78.848 137.728 155.136 114.176 67.072-20.992 101.888-99.328 72.192-165.888-5.12-11.776-3.072-17.92 5.632-25.6 18.432-15.872 35.328-33.28 53.248-49.664 93.696 98.816 217.6 83.968 292.864 27.136 11.264 11.776 23.552 24.064 34.304 36.864 2.048 2.56 0.512 9.728-1.536 13.824-29.696 59.904-22.528 123.392 20.992 172.544 36.864 40.96 83.968 55.808 137.216 44.032 58.368-12.8 95.232-51.2 109.568-109.056 20.48-81.408-27.648-161.792-108.032-181.248-51.712-12.288-96.768 3.072-137.216 40.448-11.776-12.288-23.040-24.064-34.304-36.352 80.896-85.504 81.408-221.696 4.096-308.224 18.944-18.432 38.4-36.352 58.88-55.808 43.52 33.28 91.648 46.080 145.408 31.744 39.936-10.752 70.144-33.792 93.184-68.096 44.544-67.584 32.768-161.792-27.648-217.088-57.856-52.736-148.48-54.784-209.92-3.072-61.952 52.224-83.968 153.6-20.992 236.544-19.456 18.432-38.912 36.864-59.392 56.32-42.496-32.768-90.112-50.688-143.36-48.64-53.76 1.536-99.328 23.040-140.288 58.88-9.728-10.24-19.456-20.48-29.696-31.744 36.352-57.856 45.056-119.808 22.528-184.32-16.384-48.128-47.104-85.504-91.648-110.592-89.088-50.176-198.144-25.088-258.56 59.392s-47.616 206.848 30.72 275.456c76.8 67.584 196.608 70.656 279.552-16.384z" />
<glyph unicode="&#xe92a;" glyph-name="q-21" horiz-adv-x="1417" d="M1417.846 54.154c0-65.255-52.899-118.154-118.154-118.154v0h-1181.538c-65.255 0-118.154 52.899-118.154 118.154s52.899 118.154 118.154 118.154h-39.385c0 254.74 227.958 578.481 480.729 677.809 20.644 64.105 79.686 109.706 149.404 109.883h0.021c70.262 0 129.103-46.316 149.425-109.883 252.77-99.328 480.729-423.070 480.729-677.809h-39.385c65.255 0 118.154-52.899 118.154-118.154v0zM630.154 644.923h-78.769v-393.846h78.769v393.846zM866.462 644.923h-78.769v-393.846h78.769v393.846zM1299.692 93.538h-1181.538c-21.752 0-39.385-17.633-39.385-39.385s17.633-39.385 39.385-39.385v0h1181.538c21.752 0 39.385 17.633 39.385 39.385s-17.633 39.385-39.385 39.385v0z" />
<glyph unicode="&#xe92b;" d="M64 896h896v-896h-896v896z" />
<glyph unicode="&#xe92c;" d="M483.584 460.16h16.256v154.24c-0.182 84.87-69.025 153.6-153.92 153.6-85.008 0-153.92-68.912-153.92-153.92 0-84.895 68.73-153.737 153.582-153.92h138.002zM192 281.92c0-85.008 68.912-153.92 153.92-153.92s153.92 68.912 153.92 153.92v0 153.984h-154.24c0 0 0 0 0 0-84.831 0-153.6-68.769-153.6-153.6 0-0.135 0-0.27 0.001-0.405v0.021zM832 614.4c0 85.008-68.912 153.92-153.92 153.92s-153.92-68.912-153.92-153.92v0-154.24h153.92c0.095 0 0.208 0 0.321 0 84.831 0 153.6 68.769 153.6 153.6 0 0.225 0 0.45-0.001 0.675v-0.035zM832 281.6c0-85.008-68.912-153.92-153.92-153.92s-153.92 68.912-153.92 153.92v0 154.24h153.92c0.095 0 0.208 0 0.321 0 84.831 0 153.6-68.769 153.6-153.6 0-0.225 0-0.45-0.001-0.675v0.035z" />
<glyph unicode="&#xe92d;" d="M713.024 462.4c75.52 35.84 118.976 81.024 118.976 145.6 0 88.366-71.634 160-160 160v0c35.28-12.402 64.617-34.327 85.805-62.694l0.339-0.474c21.339-22.252 36.998-50.112 44.549-81.147l0.251-1.221c7.36-54.528-9.344-94.080-89.92-160.064zM713.024 433.6c75.52-35.84 118.976-81.024 118.976-145.6 0-88.366-71.634-160-160-160v0c35.278 12.406 64.614 34.33 85.805 62.694l0.339 0.474c17.118 22.886 28.309 51.113 30.811 81.799l0.037 0.569c7.424 54.528 4.608 94.080-75.968 160.064z" />
<glyph unicode="&#xe92e;" d="M310.976 462.4c-75.52 35.84-118.976 81.024-118.976 145.6 0 88.366 71.634 160 160 160v0c-35.28-12.402-64.617-34.327-85.805-62.694l-0.339-0.474c-17.121-22.884-28.313-51.113-30.811-81.8l-0.037-0.568c-7.424-54.528-4.608-94.080 75.968-160.064zM310.976 433.6c-75.52-35.84-118.976-81.024-118.976-145.6 0-88.366 71.634-160 160-160v0c-35.278 12.406-64.614 34.33-85.805 62.694l-0.339 0.474c-17.121 22.884-28.313 51.113-30.811 81.8l-0.037 0.568c-7.424 54.528-4.608 94.080 75.968 160.064z" />
<glyph unicode="&#xe92f;" glyph-name="q-23" horiz-adv-x="1082" d="M1075.432 642.538l-85.308 88.385c-0.241 0.241-0.513 0.407-0.769 0.633-4.799 7.021-12.767 11.568-21.797 11.568-0.004 0-0.009 0-0.013 0h-96.439c-0.543 0.256-1.011 0.588-1.569 0.799l-556.057 214.447c-0.603 0.226-1.207 0.362-1.825 0.543-0.468 0.121-0.92 0.317-1.388 0.407l-0.95 0.196-0.89 0.151c-0.558 0.075-1.131 0.090-1.704 0.136-0.558 0.045-1.116 0.136-1.674 0.136-0.181 0-0.347 0.060-0.528 0.060-0.151 0-0.287-0.045-0.437-0.045l-0.724-0.015c-0.573-0.015-1.116-0.136-1.659-0.196-0.633-0.060-1.237-0.106-1.87-0.211l-0.98-0.181c-0.194-0.037-0.356-0.079-0.515-0.129l0.032 0.009c-0.573-0.136-1.131-0.347-1.689-0.528-0.603-0.181-1.207-0.347-1.795-0.588-0.302-0.106-0.618-0.211-0.92-0.347-0.214-0.096-0.358-0.167-0.5-0.24l0.062 0.029c-0.573-0.256-1.116-0.603-1.674-0.92-0.407-0.226-0.845-0.362-1.252-0.603l-0.377-0.287c-0.211-0.151-0.437-0.256-0.649-0.407l-0.573-0.437c-0.151-0.106-0.317-0.181-0.468-0.302l-245.533-186.921h-43.001v-193.753h214.055v23.725c0.302-0.015 0.573-0.090 0.86-0.090h63.212v-608.771h-126.288v-52.79h691.666v52.79h-381.443v608.771h590.762c1.011 0 2.006 0.196 2.986 0.302 0.211 0 0.392-0.060 0.588-0.060 0.016 0 0.034 0 0.053 0 14.577 0 26.395 11.817 26.395 26.395 0 7.129-2.827 13.599-7.42 18.348l0.007-0.007zM453.826 743.125l-85.369 137.525 356.466-137.525h-271.098zM391.685 743.125h-60.769v97.917l60.769-97.917zM278.126 880.333v-137.208h-63.212c-0.287 0-0.558-0.075-0.86-0.090v24.645h-83.905l147.977 112.653zM161.265 626.716h-108.475v88.174h108.475v-88.174zM214.055 650.26v40.165c0.302-0.015 0.573-0.090 0.86-0.090h741.002l38.597-39.984h-779.599c-0.287 0-0.558-0.075-0.86-0.090zM330.916 296.418l65.987-56.953-65.987-56.937v113.89zM409.286 298.515l-65.565 56.576 65.565 56.576v-113.151zM409.286 180.432v-122.231l-70.829 61.115 70.829 61.115zM330.916 413.762v113.905l66.002-56.968-66.002-56.937zM330.916 56.104l78.023-67.314h-78.023v67.314zM409.286 529.764l-78.37 67.631v0.166h78.37v-67.797zM868.753 552.493l-28.506-165.322h-33.077l-24.585 165.322h-45.746l24.826-166.921c-3.469-1.327-6.621-3.394-9.11-6.259-4.284-4.977-6.214-11.584-5.249-18.099l13.771-92.759c1.675-10.986 11.055-19.306 22.38-19.306 0.001 0 0.002 0 0.003 0h16.847v-26.621c0-0.256 0.060-0.483 0.090-0.739-0.030-0.256-0.090-0.483-0.090-0.739 0-12.495 10.129-22.624 22.624-22.624v0c13.801 0 25.037-11.237 25.037-25.037-0.482-13.457-11.507-24.183-25.037-24.183s-24.556 10.726-25.036 24.139l-0.001 0.044c0 12.495-10.129 22.624-22.624 22.624s-22.624-10.129-22.624-22.624v0c0-38.748 31.538-70.286 70.286-70.286s70.286 31.538 70.286 70.286c0 30.799-20.045 56.756-47.662 66.228v9.532h19.351c11.101 0 20.558 8.039 22.323 19.004l15.068 92.774c0.185 1.088 0.29 2.34 0.29 3.618 0 5.612-2.038 10.749-5.415 14.709l0.026-0.032c-2.9 3.335-6.719 5.801-11.062 7.006l-0.159 0.038 28.657 166.242h-45.882zM845.676 294.397h-42.714l-7.059 47.526h57.496l-7.722-47.526z" />
<glyph unicode="&#xe930;" glyph-name="q-24" d="M72.976 891.744h878.047c35.085 0 63.777-28.692 63.777-63.777v-93.304c0-17.543-14.347-31.889-31.877-31.889h-941.847c-17.532 0-31.878 14.347-31.878 31.889v93.304c0 35.086 28.692 63.777 63.777 63.777zM71.635 642.029h880.727v-574.017c0-35.064-28.691-63.756-63.755-63.756h-753.216c-35.064 0-63.755 28.692-63.755 63.756v574.017h-0.001zM409.086 513.804c-18.564 0-33.746-15.192-33.746-33.746 0-18.565 15.181-33.746 33.746-33.746h205.826c18.565 0 33.746 15.181 33.746 33.746 0 18.554-15.181 33.746-33.746 33.746h-205.826z" />
<glyph unicode="&#xe931;" glyph-name="q-25" d="M256.621 431.409l207.12 137.881h96.493l207.168-137.882v-385.641h-150.542v138.739c0 57.693-47.172 104.889-104.843 104.889h-0.047c-57.659 0-104.855-47.196-104.855-104.889v-138.738h-150.494v385.641zM364.243 750.734h99.498v99.499h96.493v-99.499h99.522v-96.529h-99.522v-99.498h-96.493v99.498h-99.498zM20.879 260.369c-6.864-3.064-13.776-6.272-13.776-13.8v-187.025c0-7.53 6.176-13.777 13.776-13.777h183.226v297.33l-183.226-82.728zM1003.121 260.369c6.841-3.064 13.776-6.272 13.776-13.8v-187.025c0-7.53-6.175-13.777-13.776-13.777h-183.226v297.33l183.226-82.728z" />
<glyph unicode="&#xe932;" glyph-name="q-26" d="M64.341 728.058h224.827v117.909c0 24.084 19.669 43.753 43.753 43.753h358.155c24.084 0 43.753-19.669 43.753-43.753v-117.909h224.827c32.507 0 59.16-26.652 59.16-59.159v-603.459c0-32.508-26.653-59.16-59.16-59.16h-895.316c-32.533 0-59.16 26.652-59.16 59.16v603.459c0.001 32.507 26.627 59.159 59.16 59.159zM421.303 696.527v-51.302h65.066v-65.065h51.264v65.065h65.066v51.302h-65.066v65.065h-51.264v-65.065h-65.066zM190.594 230.131c-6.932 0-12.607-5.65-12.607-12.634v-86.583c0-6.931 5.675-12.582 12.607-12.582h86.609c6.932 0 12.582 5.65 12.582 12.582v86.583c0 6.983-5.65 12.634-12.582 12.634h-86.609zM468.702 230.131c-6.932 0-12.607-5.65-12.607-12.634v-86.583c0-6.931 5.675-12.582 12.607-12.582h86.596c6.932 0 12.582 5.65 12.582 12.582v86.583c0 6.983-5.65 12.634-12.582 12.634h-86.596zM746.797 230.131c-6.933 0-12.583-5.65-12.583-12.634v-86.583c0-6.931 5.65-12.582 12.583-12.582h86.582c6.933 0 12.634 5.65 12.634 12.582v86.583c0 6.983-5.7 12.634-12.634 12.634h-86.582zM190.594 447.718c-6.932 0-12.607-5.649-12.607-12.582v-86.583c0-6.933 5.675-12.634 12.607-12.634h86.609c6.932 0 12.582 5.7 12.582 12.634v86.583c0 6.933-5.65 12.582-12.582 12.582h-86.609zM468.702 447.718c-6.932 0-12.607-5.649-12.607-12.582v-86.583c0-6.933 5.675-12.634 12.607-12.634h86.596c6.932 0 12.582 5.7 12.582 12.634v86.583c0 6.933-5.65 12.582-12.582 12.582h-86.596zM746.797 447.718c-6.933 0-12.583-5.649-12.583-12.582v-86.583c0-6.933 5.65-12.634 12.583-12.634h86.582c6.933 0 12.634 5.7 12.634 12.634v86.583c0 6.933-5.7 12.582-12.634 12.582h-86.582z" />
<glyph unicode="&#xe933;" glyph-name="q-27" d="M187.946 950.519h387.425v-264.036c0-29.635 24.236-53.881 53.871-53.881h260.682v-633.241c0-29.635-24.235-53.88-53.87-53.88h-648.108c-29.635 0-53.87 24.245-53.87 53.88v897.277c0 29.635 24.235 53.881 53.87 53.881zM278.027 700.582c-6.946 0-12.629-5.694-12.629-12.64v-37.921c0-6.956 5.683-12.64 12.629-12.64h164.331c6.946 0 12.651 5.683 12.651 12.64v37.921c0 6.946-5.705 12.64-12.651 12.64h-164.331zM278.027 823.259c-6.946 0-12.629-5.694-12.629-12.64v-37.931c0-6.957 5.683-12.641 12.629-12.641h164.331c6.946 0 12.651 5.683 12.651 12.641v37.931c0 6.946-5.705 12.64-12.651 12.64h-164.331zM539.966 135.2c58.007 9.646 88.382 47.119 88.382 92.083 0 55.524-43.788 75.284-83.287 90.233-31.508 11.748-60.875 19.75-60.875 41.643 0 17.082 12.825 28.83 39.515 28.83 22.427 0 43.244-10.681 64.604-25.629l35.231 47.522c-21.447 15.971-48.753 31.551-83.57 35.732v54.654c0 3.452-2.83 6.271-6.271 6.271h-43.478c-3.44 0-6.271-2.82-6.271-6.271v-57.986c-45.508-11.487-73.423-44.333-73.423-87.391 0-49.656 43.767-72.618 81.675-87.032 31.502-12.281 62.466-22.428 62.466-44.844 0-18.694-13.348-31.496-43.244-31.496-27.757 0-53.385 11.748-80.081 32.564l-35.775-49.123c23.277-19.456 55.916-34.546 88.382-39.989v-56.897c0-3.44 2.83-6.271 6.271-6.271h43.478c3.44 0 6.271 2.83 6.271 6.271v57.126zM886.767 699.493h-249.338v251.026h18.486l230.852-228.609z" />
<glyph unicode="&#xe934;" glyph-name="q-28" d="M53.013 745.731h917.957c24.287 0 44.168-19.863 44.168-44.151v-507.153c0-24.288-19.881-44.16-44.168-44.16h-917.957c-24.288 0-44.151 19.872-44.151 44.16v507.153c0 24.288 19.862 44.151 44.151 44.151zM512.821 631.329c-84.264 0-152.563-79.973-152.563-178.633s68.299-178.642 152.563-178.642c84.242 0 152.542 79.982 152.542 178.642s-68.299 178.633-152.542 178.633zM834.44 222.401h102.049v101.622c-53.438-5.941-95.882-48.255-102.049-101.622zM189.543 222.401c-6.15 53.367-48.594 95.681-102.032 101.622v-101.622h102.032zM834.44 673.607c6.167-53.368 48.611-95.68 102.049-101.622v101.622h-102.049zM189.543 673.607h-102.032v-101.622c53.438 5.941 95.882 48.254 102.032 101.622zM448.82 355.264h125.698v43.725h-39.273v157.698h-35.843c-13.277-8.188-17.563-16.081-38.454-20.037v-45.937l27.72 2.527v-94.251h-39.847v-43.724z" />
<glyph unicode="&#xe935;" glyph-name="q-29" d="M512.006 606.495c67.832 0 123.21 55.332 123.21 123.164 0 67.844-55.378 123.176-123.21 123.176-67.845 0-123.176-55.332-123.176-123.176 0-67.832 55.331-123.164 123.176-123.164zM170.286 802.739h683.475c11.275 0 20.519-9.233 20.519-20.531v-47.925c0-11.297-9.245-20.543-20.519-20.543h-683.475c-11.321 0-20.566 9.246-20.566 20.543v47.925c0 11.297 9.245 20.531 20.566 20.531zM459.823 618.771h104.402v-517.633h-104.402zM158.777 146.423h706.447v-103.258h-706.447zM403.311 341.948c0-76.276-89.2-138.117-199.251-138.117s-199.251 61.841-199.251 138.117l127.362 263.91c11.747 28.138 39.576 48.055 71.841 48.055 31.416 0 59.766-19.116 71.842-48.055l127.456-263.91zM91.228 352.703h225.713l-112.881 221.009-112.833-221.009zM1019.19 341.948c0-76.276-89.2-138.117-199.252-138.117-110.003 0-199.251 61.841-199.251 138.117l127.41 263.91c11.698 28.138 39.529 48.055 71.794 48.055 31.416 0 59.766-19.104 71.842-48.055l127.457-263.91zM707.105 352.703h225.714l-112.881 221.008-112.834-221.008z" />
</font>
</defs>
</svg>
