<?xml version="1.0" standalone="no"?><!DOCTYPE svg PUBLIC "-//W3C//DTD SVG 1.1//EN" "http://www.w3.org/Graphics/SVG/1.1/DTD/svg11.dtd"><svg t="1560508810783" class="icon" style="" viewBox="0 0 1024 1024" version="1.1" xmlns="http://www.w3.org/2000/svg" p-id="3906" xmlns:xlink="http://www.w3.org/1999/xlink" width="200" height="200"><defs><style type="text/css"></style></defs><path d="M858.504 109H649.497c-21-58.01-75.994-100.006-141.001-100.006-64.994 0-119.994 41.996-140.994 100.006H158.495C103.5 109 58.5 154 58.5 208.991v700.004C58.5 964 103.5 1009 158.495 1009h700.009c54.994 0 99.996-45 99.996-100.006V208.991C958.5 154 913.5 109 858.504 109z m-350.008 0c27.506 0 50 22.495 50 49.995s-22.494 49.995-50 49.995c-27.5 0-49.994-22.495-49.994-49.995S480.996 109 508.496 109z m100.007 699.999H258.501V708.998h350.002v100.001z m149.995-200.001H258.501V508.992h499.997v100.006z m0-200.001H258.501V308.996h499.997v100.001z" fill="#0E0D0D" p-id="3907"></path></svg>