<?xml version="1.0" standalone="no"?><!DOCTYPE svg PUBLIC "-//W3C//DTD SVG 1.1//EN" "http://www.w3.org/Graphics/SVG/1.1/DTD/svg11.dtd"><svg t="1560508827518" class="icon" style="" viewBox="0 0 1024 1024" version="1.1" xmlns="http://www.w3.org/2000/svg" p-id="4063" xmlns:xlink="http://www.w3.org/1999/xlink" width="200" height="200"><defs><style type="text/css"></style></defs><path d="M354.506 623.448V405.797H234.58v68.845h46.635v159.9c0 17.768-7.422 26.652-22.206 26.652h-19.986v62.174h68.84c20.715 0 34.05-9.635 39.976-28.862 22.203 19.227 45.87 28.862 71.066 28.862h322.016v-62.174H425.57c-22.21-1.468-45.91-14.06-71.064-37.746z m2.219-399.752h-86.61v84.386h86.61v-84.386z m388.641 84.386v-64.4H592.133v-26.65h-79.954v26.65H390.035v64.4H512.18v44.42H387.818v66.621H509.96v48.861H385.595v64.4H509.96v108.824h77.728V532.384h82.171v33.312c1.456 10.378-2.224 14.82-11.105 13.323H621v53.304h86.613c23.665 1.495 34.763-11.833 33.312-39.976V467.984H587.688v-48.86h153.237v-66.622H589.912v-44.42h155.454z m0 0" fill="#007AFF" p-id="4064"></path><path d="M850.029 759.886C913.589 680.514 951.6 579.796 951.6 470.2c0-256.149-207.65-463.8-463.8-463.8C231.651 6.4 24 214.051 24 470.2 24 726.35 231.651 934 487.8 934c93.403 0 180.358-27.611 253.149-75.115C906.046 1040 893.246 1022.4 893.246 1022.4l105.704-96.998c0.002 0 14.402 16-148.921-165.516zM487.8 847.606c-208.435 0-377.405-168.97-377.405-377.406S279.365 92.795 487.8 92.795c208.435 0 377.406 168.97 377.406 377.405S696.236 847.606 487.8 847.606z" fill="#007AFF" p-id="4065"></path></svg>