<?xml version="1.0" standalone="no"?><!DOCTYPE svg PUBLIC "-//W3C//DTD SVG 1.1//EN" "http://www.w3.org/Graphics/SVG/1.1/DTD/svg11.dtd"><svg t="1560508853183" class="icon" style="" viewBox="0 0 1024 1024" version="1.1" xmlns="http://www.w3.org/2000/svg" p-id="4863" xmlns:xlink="http://www.w3.org/1999/xlink" width="200" height="200"><defs><style type="text/css"></style></defs><path d="M527.451 47.308C280.14 47.31 79.564 247.848 79.564 495.216c0 247.263 200.576 447.802 447.888 447.802 247.388 0 447.926-200.539 447.926-447.802 0-247.368-200.54-447.908-447.927-447.908z m59.952 583.036l33.728 103.87-88.385-64.256a9.164 9.164 0 0 0-10.59 0l-88.347 64.256 33.747-103.87c1.219-3.73-0.075-7.732-3.275-10.055l-88.367-64.246h109.26c3.866 0 7.274-2.495 8.512-6.152l33.766-104.02 33.785 104.02c1.22 3.657 4.627 6.152 8.494 6.152h109.334l-88.404 64.246c-3.145 2.324-4.476 6.324-3.258 10.055zM527.45 407.991c-90.824 0-165.23-71.53-169.915-161.23H697.44c-4.647 89.701-79.092 161.23-169.99 161.23z" fill="" p-id="4864"></path></svg>