<?xml version="1.0" standalone="no"?><!DOCTYPE svg PUBLIC "-//W3C//DTD SVG 1.1//EN" "http://www.w3.org/Graphics/SVG/1.1/DTD/svg11.dtd"><svg t="1560508867452" class="icon" style="" viewBox="0 0 1024 1024" version="1.1" xmlns="http://www.w3.org/2000/svg" p-id="5853" xmlns:xlink="http://www.w3.org/1999/xlink" width="200" height="200"><defs><style type="text/css"></style></defs><path d="M918.364 289.563c0-80.887-81.272-80.887-81.272-80.887H186.909s-81.273 0-81.273 80.887v404.434h812.729V289.563z m-0.123 444.874H104.459S65 734.437 65 774.884c0 40.44 39.459 40.44 39.459 40.44h813.782s40.759 0 40.759-40.44c0-40.447-40.759-40.447-40.759-40.447z m-345.284 60.667H410.41s-20.32 0-20.32-20.22c0-20.224 20.32-20.224 20.32-20.224h162.547s20.316 0 20.316 20.224c0 20.22-20.316 20.22-20.316 20.22z" p-id="5854"></path></svg>