<?xml version="1.0" standalone="no"?><!DOCTYPE svg PUBLIC "-//W3C//DTD SVG 1.1//EN" "http://www.w3.org/Graphics/SVG/1.1/DTD/svg11.dtd"><svg t="1560508891089" class="icon" style="" viewBox="0 0 1025 1024" version="1.1" xmlns="http://www.w3.org/2000/svg" p-id="6092" xmlns:xlink="http://www.w3.org/1999/xlink" width="200.1953125" height="200"><defs><style type="text/css"></style></defs><path d="M891.209 830.488l0.928-330.047H138.696v330.947H78.621q-7.397 0-12.009 4.613t-4.613 11.559 4.613 11.559 12.009 4.613h867.15q4.613 0 8.775-2.306t6.019-6.019 1.856-8.325q0-7.397-4.613-12.009t-12.009-4.613h-54.534zM677.656 608.609v221.878H532.503V571.625h105.384q15.722 0 23.569 3.234t12.009 11.081 4.162 22.641z m-322.65 221.879V608.61q0-6.469 0.928-11.559t2.306-8.775 4.162-6.469 6.019-4.612 7.847-2.784 9.703-1.856 11.559-0.928h101.7v258.862H355.005z m526.022-670.247H150.706q-14.794 0-26.803 6.947t-19.406 19.406-7.397 26.353v222.806q0 22.191 15.722 37.913t37.913 15.722h730.322q22.191 0 37.912-15.722t15.722-37.913V212.947q0-10.181-4.163-20.334t-11.559-17.1-17.1-11.081-20.813-4.162zM219.106 302.609q-14.794 0-25.425-10.631t-10.631-25.425q0-6.469 2.784-13.416t7.847-11.559 11.559-7.397 13.866-2.784q14.794 0 24.947 10.631t10.181 24.497q0 7.397-2.784 13.866t-7.397 11.559-11.081 7.847-13.866 2.784z m131.288 0q-14.794 0-25.425-10.631t-10.631-24.947 10.631-24.947 25.425-10.631 24.947 10.631 10.181 24.497q0 7.397-2.784 13.866t-7.397 11.559-11.081 7.847-13.866 2.784z m131.259 0q-14.794 0-24.947-10.631t-10.181-24.947 10.181-24.947 24.947-10.631 24.947 10.631 10.181 24.497q0 7.397-2.784 13.866t-7.397 11.559-11.081 7.847-13.866 2.784z" p-id="6093"></path></svg>